<svg xmlns="http://www.w3.org/2000/svg" xmlns:xlink="http://www.w3.org/1999/xlink" width="304.31" height="341.25" viewBox="0 0 304.31 341.25">
  <defs>
    <linearGradient id="linear-gradient" x1="0.746" y1="-0.207" x2="1.492" y2="1.666" gradientUnits="objectBoundingBox">
      <stop offset="0" stop-color="#5e2568"/>
      <stop offset="0.123" stop-color="#642c69"/>
      <stop offset="1" stop-color="#e9c77f"/>
    </linearGradient>
  </defs>
  <g id="HU-lion-Icon" transform="translate(-2238.621 -992.174)">
    <path id="Path_7" data-name="Path 7" d="M206.081,221.037c-19.066,13.548-33.784,26.789-44.009,39.66l15.61,1.025s5.127-3.538,6.512-.113-2.133,6.153-2.133,6.153l-11.21.154,5.651,3.795-8.01,10.1.194,16c0,3,7.466,7.261,7.466,7.261s10.421,4.184,15.221,4.1,21.22-2.564,31.579-2.677,9.681,11.1,9.681,11.1-4.81-4.195-13.569-5.405c-8.574-1.169-25.988-.9-31.527.892s-14.758-2.369-14.758-2.369c-7.292,7.446-6.287,17.856.79,25.138s23.466,6.153,33.343.81,21.661.072,21.661.072a74.166,74.166,0,0,1-32.758,11.744c-15.528,3.159-26.768-1.169-33.948-12.841-1.692-8.3,1.026-17.436,8.256-27.446,0,0-5.292-6.39-7.056-7.681s-2.349-11.21-3.22-13.825-5.775-12.051-5.775-12.051c-4.1-6.533-3.774-12.4.493-17.774,11.384-11.969,26.738-24.881,46.225-38.788q-4.1-13.846,10.46-24.451l21.918-14.143q17.435-51.9,67.249-50.368-53.506,12.02-56.409,52.788-44.849,21.619-37.947,39.117" transform="translate(2087.449 863.107)" fill-rule="evenodd" fill="url(#linear-gradient)"/>
    <path id="Path_8" data-name="Path 8" d="M248.12,220.741,226.4,216.71c-.769,5.129-3.62,11.415-8.338,18.779,9.528-8,18.666-10.974,27.588-9.056Z" transform="translate(2089.501 865.353)" fill-rule="evenodd" fill="url(#linear-gradient)"/>
    <path id="Path_9" data-name="Path 9" d="M270.22,327.974q-50.131,55.383-38.768,130.94c1.806-36.132,10.113-64.9,30.461-104.418,3.354-6.513,46.624-66.46,46.624-66.46l-27.3,27.692q2.175-19.662,26.512-54.942c-4.1-31.015-13.539-49.835-28.574-56.317,11.939,12.841,18.974,32.82,20.85,59.968q-27.772,28.286-29.8,63.587" transform="translate(2090.177 865.039)" fill-rule="evenodd" fill="url(#linear-gradient)"/>
    <path id="Path_10" data-name="Path 10" d="M256.36,173.843l17.713-8.923q18.46-32.522,72.705-32.235-69.054-7.538-90.418,41.158" transform="translate(2091.288 863.174)" fill-rule="evenodd" fill="url(#linear-gradient)"/>
    <path id="Path_11" data-name="Path 11" d="M317.58,141.952q69.373,9.354,105.741,62.932-32.554-71.311-105.741-62.932" transform="translate(2093.802 863.416)" fill-rule="evenodd" fill="url(#linear-gradient)"/>
    <path id="Path_12" data-name="Path 12" d="M329.508,210.215q10.317-48.9-15.968-53.845c13.055,9.938,15.383,24.81,7.178,44.481Z" transform="translate(2093.007 863.806)" fill-rule="evenodd" fill="url(#linear-gradient)"/>
    <path id="Path_13" data-name="Path 13" d="M301.315,197.079l-.586-13.333-12.02,5.764c.235-20.081,5.662-29.743,16.409-28.789q15.047,7.8,7.816,31.528c-3.2,5.856-7.047,7.477-11.641,4.881" transform="translate(2092.133 863.915)" fill-rule="evenodd" fill="url(#linear-gradient)"/>
    <path id="Path_14" data-name="Path 14" d="M354.49,167.61s5.251,9.364,6.769,15.835c0,0,17.231-2.051,36.922,23.158-12.308-31.106-34.87-37.25-43.7-38.973" transform="translate(2094.726 864.094)" fill-rule="evenodd" fill="url(#linear-gradient)"/>
    <path id="Path_15" data-name="Path 15" d="M372.093,207.2l-6.154-17.63a46.265,46.265,0,0,1,29.106,26.471c-11.527-12.061-21.476-10-22.911-8.841" transform="translate(2095.043 864.656)" fill-rule="evenodd" fill="url(#linear-gradient)"/>
    <path id="Path_16" data-name="Path 16" d="M337,173.9s19.292,22.841,20.236,62.142,7.322,53.905,16.994,71.454c-9.087-28.984-4.1-53.865-3.815-74.377S354.354,187.643,337,173.9" transform="translate(2094.01 864.257)" fill-rule="evenodd" fill="url(#linear-gradient)"/>
    <path id="Path_17" data-name="Path 17" d="M380.24,219s8.153,24.614,2.246,50.152,1.262,46,8.872,60.665,19.579,23.753,24.871,6.728,0-35.455-6.1-43.64c0,0,13.138,24.327-10.522,42.778-5.887-9.661-4.739-20.512-4.451-39.588s4.707-50.358-14.912-77.1" transform="translate(2095.654 865.411)" fill-rule="evenodd" fill="url(#linear-gradient)"/>
    <path id="Path_18" data-name="Path 18" d="M355.12,398.043c.206-3.466.39-7.773.206-12.942-28.594-32.6-17.579-88.9-17.579-88.9-11.939,33.374-.6,78.162,11.137,94.357a82.544,82.544,0,0,0,6.236,7.5" transform="translate(2093.749 867.387)" fill-rule="evenodd" fill="url(#linear-gradient)"/>
    <path id="Path_19" data-name="Path 19" d="M418.389,267.024c-24-24.687-21.108-41.025-21.108-41.025-6.153,32.224,9.056,43.937,19.7,57.711s23.394,28.717,21.035,50.4c-12.493,66.788-48.512,76-70.9,63.588a49.019,49.019,0,0,1-1.488,11.887c15.005,9.559,36.337,11.62,61.536-18.984,38.113-46.306,15.18-99.013-8.8-123.586" transform="translate(2095.466 865.59)" fill-rule="evenodd" fill="url(#linear-gradient)"/>
    <path id="Path_20" data-name="Path 20" d="M377.08,321.32s-5.221,4.441-2.329,21.7,3.519,39.527-11.69,36.348c0,0,6.153,15.825,14.357,9.344s8.5-19.96,4.359-31.9-6.092-28.718-4.7-35.5" transform="translate(2094.882 868.031)" fill-rule="evenodd" fill="url(#linear-gradient)"/>
    <path id="Path_21" data-name="Path 21" d="M361.242,353.1s-4.615,5.918-4.288,28.965-1.291,30.654-12.224,23.588c0,0,2.288,18.943,10.523,15.077s12.461-22.071,10.256-33.609-7.517-22.02-4.307-34.03" transform="translate(2094.194 868.844)" fill-rule="evenodd" fill="url(#linear-gradient)"/>
    <path id="Path_22" data-name="Path 22" d="M340.847,381.49a141.806,141.806,0,0,0-3.322,26.768c-.226,13.886-6.995,28.717-18.718,31.62s-15.251-7.18-13.527-14.185c0,0-7.436,26.184,14.862,28.1,17,1.365,26.542-20.337,23.988-39.117s-3.733-27.691-3.283-33.188" transform="translate(2092.796 869.571)" fill-rule="evenodd" fill="url(#linear-gradient)"/>
    <path id="Path_23" data-name="Path 23" d="M317.869,310s10.615,80.438-25.958,114.284c-17.19,15.928-40.687,11.6-33.035-32.173,0,0-15.087,56.613,17.968,53.608s54.717-70.767,41.025-135.761" transform="translate(2091.105 867.741)" fill-rule="evenodd" fill="url(#linear-gradient)"/>
    <path id="Path_24" data-name="Path 24" d="M259.072,390.9s-19.19,32.646-4.1,60.305c5.334,8.205,17.866,8.339,21.538,4.471-11.559,12.441-25.128,9.508-31.6-3.641-9.425-19.414,4.533-51.5,14.225-61.136" transform="translate(2090.412 869.814)" fill-rule="evenodd" fill="url(#linear-gradient)"/>
    <path id="Path_25" data-name="Path 25" d="M342.34,228.231s29.322,61.967,1.406,113.689c0,0,20.635-45.548-3.713-96.541,0,0,.092-1.8-2.574,1.446-2.1,2.739-5.57,8.513-8.349,3.2s10.5-27.21,13.23-21.794" transform="translate(2093.636 865.625)" fill-rule="evenodd" fill="url(#linear-gradient)"/>
    <path id="Path_26" data-name="Path 26" d="M411.546,207.14s26.87,22.123,31.394,89.875c0,0-2.852-44.256-28.809-71.147-.493,14.563,2.81,27.5,4.953,29.424s3.56-9.005,2.369-15.261c5.734,12.892,6.205,23.025,1.96,24.768s-16.564-20.051-11.867-57.66" transform="translate(2096.747 865.107)" fill-rule="evenodd" fill="url(#linear-gradient)"/>
    <path id="Path_27" data-name="Path 27" d="M284.377,378.033s7.323-7.641,9.866-11.733c.677,22.564-.225,28.358-14.173,46.87,4.964-10.143,7.3-23.722,4.307-35.138" transform="translate(2091.736 869.184)" fill-rule="evenodd" fill="url(#linear-gradient)"/>
    <path id="Path_28" data-name="Path 28" d="M282.536,336.459c1.62-3.333,16.071-10.133,22.81-1.025,2.595,4.4-20.225,40.132-54.266,54.767,18.738-13.558,26.933-22.994,38.071-40,5.61-9.937-10.092-6.994-6.615-13.784" transform="translate(2090.871 868.277)" fill-rule="evenodd" fill="url(#linear-gradient)"/>
  </g>
</svg>
