<svg xmlns="http://www.w3.org/2000/svg" xmlns:xlink="http://www.w3.org/1999/xlink" width="763" height="270" viewBox="0 0 763 270">
  <defs>
    <clipPath id="clip-MCT-new-Updated-Logo_">
      <rect width="763" height="270"/>
    </clipPath>
  </defs>
  <g id="MCT-new-Updated-Logo_" data-name="MCT-new-Updated-Logo " clip-path="url(#clip-MCT-new-Updated-Logo_)">
    <g id="Group_387" data-name="Group 387">
      <g id="Group_1504" data-name="Group 1504" transform="translate(3.704 23)">
        <g id="HU-logo">
          <g id="Group_202" data-name="Group 202">
            <path id="Path_190" data-name="Path 190" d="M346.919,322.147c0-.23,0-.478-.015-.693a102.741,102.741,0,1,0-205.482-.012l.016.523c-.03.447-.03.887-.03,1.351v1.5a4.73,4.73,0,0,1,.03.658,102.79,102.79,0,0,0,71.011,95.882,13.508,13.508,0,0,0,2.816-5.079l.025-.06.015-.16c.214-1.017.474-2.093.733-3.365l.184-.642c1.281-5.3,2.822-10.258,2.846-10.337.383-1.34.708-2.368.983-3.06a18.094,18.094,0,0,1,2-3.334,5.272,5.272,0,0,1,4.326-2.074,7.108,7.108,0,0,1,2.283.374l1.415.583-.065-1.511a10.521,10.521,0,0,0-.164-1.519,68.937,68.937,0,0,1-17.18-6.076v-.323a68.836,68.836,0,0,1,10.6-126.979l-.095-.284a69.194,69.194,0,0,1,52.509,4.311v.314a68.866,68.866,0,0,1-10.567,127.009l.089.289a68.679,68.679,0,0,1-31.879,2.378c-3.818,7.93-4.506,21.086-4.506,29.377,0,1.072-.07,2.482-.179,4.021a103.982,103.982,0,0,0,15.556,1.171A102.737,102.737,0,0,0,346.9,325.514c.015-.191.015-.364.015-.542,0-.439.035-.882.035-1.351v-.3C346.954,322.91,346.919,322.531,346.919,322.147Z" transform="translate(-141.408 -218.693)" fill="#bd96c5"/>
            <path id="Path_191" data-name="Path 191" d="M241.98,221.315a100.025,100.025,0,0,0-29.955,195.457,16.147,16.147,0,0,0,1.032-2.467l.025-.06.015-.159c.214-1.017.474-2.093.733-3.365l.185-.643c1.281-5.3,2.821-10.258,2.846-10.337.384-1.336.708-2.368.983-3.06a18.083,18.083,0,0,1,2-3.334,5.271,5.271,0,0,1,4.326-2.073,7.113,7.113,0,0,1,2.283.373l1.415.583-.065-1.51a9,9,0,0,0-1.43-4.775l6.589.574-.029.279c-5.433,7.123-6.335,22.942-6.335,32.418,0,.28-.01.625-.02.943a101.144,101.144,0,0,0,15.4,1.185,100.014,100.014,0,1,0,0-200.028Z" transform="translate(-139.2 -216.718)" fill="#461a55"/>
            <g id="Group_165" data-name="Group 165" transform="translate(32.342 34.201)">
              <path id="Path_192" data-name="Path 192" d="M147.9,297.7a70.427,70.427,0,1,1,0,.01" transform="translate(-147.9 -227.28)" fill="#bd96c5" fill-rule="evenodd"/>
            </g>
            <path id="Path_193" data-name="Path 193" d="M169.754,287.615c0-9.471.9-25.3,6.336-32.418l.03-.279-6.589-.574a9,9,0,0,1,1.43,4.775l.065,1.51-1.415-.583a7.112,7.112,0,0,0-2.283-.374A5.272,5.272,0,0,0,163,261.747a18.105,18.105,0,0,0-2,3.334c-.279.693-.6,1.724-.983,3.061-.025.08-1.565,5.034-2.846,10.337l-.184.643c-.259,1.271-.518,2.347-.733,3.364l-.015.159Z" transform="translate(-82.35 -85.119)" fill="#fff" fill-rule="evenodd"/>
            <g id="Group_166" data-name="Group 166" transform="translate(35.234 37.068)">
              <path id="Path_194" data-name="Path 194" d="M148.477,295.373a67.535,67.535,0,1,1,67.531,67.511,67.535,67.535,0,0,1-67.531-67.511" transform="translate(-148.477 -227.815)" fill="#fff" fill-rule="evenodd"/>
            </g>
            <g id="Group_167" data-name="Group 167" transform="translate(40.453 41.93)">
              <path id="Path_195" data-name="Path 195" d="M149.524,290.9a62.1,62.1,0,1,1,62.107,62.114A62.1,62.1,0,0,1,149.524,290.9" transform="translate(-149.524 -228.802)" fill="#cfb381" fill-rule="evenodd"/>
            </g>
            <g id="Group_190" data-name="Group 190" transform="translate(52.427 46.609)">
              <g id="Group_168" data-name="Group 168" transform="translate(0 0)">
                <path id="Path_196" data-name="Path 196" d="M170.482,260.83a72.907,72.907,0,0,0-14.878,13.4l5.279.357s1.724-1.2,2.2-.04a1.99,1.99,0,0,1-.715,2.074l-3.793.054,1.909,1.281-2.706,3.414.065,5.408c0,1.017,2.527,2.453,2.527,2.453s3.518,1.421,5.149,1.406c1.595-.04,7.173-.868,10.672-.9,3.5-.05,3.274,3.753,3.274,3.753a9.411,9.411,0,0,0-4.585-1.829c-2.9-.389-8.787-.3-10.661.3-1.9.618-4.989-.8-4.989-.8-2.462,2.517-2.128,6.041.268,8.5,2.387,2.437,7.93,2.064,11.269.268,3.35-1.819,7.322.025,7.322.025a25.049,25.049,0,0,1-11.079,3.953c-5.248,1.067-9.046-.4-11.474-4.341q-.861-4.208,2.791-9.28a28.23,28.23,0,0,0-2.387-2.6c-.588-.424-.793-3.788-1.086-4.67-.314-.862-1.949-4.063-1.949-4.063-1.376-2.2-1.276-4.191.17-6.006A108.9,108.9,0,0,1,168.7,259.834q-1.4-4.681,3.534-8.264l7.416-4.78q5.892-17.547,22.733-17.031-18.086,4.06-19.07,17.843-15.17,7.311-12.825,13.228" transform="translate(-151.927 -229.745)" fill="#461a55" fill-rule="evenodd"/>
              </g>
              <g id="Group_169" data-name="Group 169" transform="translate(23.179 30.384)">
                <path id="Path_197" data-name="Path 197" d="M166.74,237.2,159.4,235.84a17.28,17.28,0,0,1-2.822,6.344c3.225-2.706,6.315-3.708,9.33-3.06Z" transform="translate(-156.577 -235.84)" fill="#461a55" fill-rule="evenodd"/>
              </g>
              <g id="Group_170" data-name="Group 170" transform="translate(27.099 26.125)">
                <path id="Path_198" data-name="Path 198" d="M171.179,276.749q-16.949,18.729-13.1,44.27c.608-12.216,3.419-21.945,10.3-35.3,1.131-2.2,15.76-22.469,15.76-22.469l-9.23,9.35q.733-6.646,8.961-18.572c-1.371-10.487-4.575-16.852-9.654-19.04,4.032,4.341,6.41,11.079,7.047,20.276q-9.391,9.555-10.078,21.487" transform="translate(-157.364 -234.985)" fill="#461a55" fill-rule="evenodd"/>
              </g>
              <g id="Group_171" data-name="Group 171" transform="translate(36.462 0.899)">
                <path id="Path_199" data-name="Path 199" d="M159.242,244.178l5.986-3.015q6.243-11,24.583-10.9-23.349-2.549-30.568,13.911" transform="translate(-159.242 -229.924)" fill="#461a55" fill-rule="evenodd"/>
              </g>
              <g id="Group_172" data-name="Group 172" transform="translate(57.689 4.153)">
                <path id="Path_200" data-name="Path 200" d="M163.5,230.875q23.453,3.163,35.747,21.278-11.006-24.111-35.747-21.278" transform="translate(-163.5 -230.578)" fill="#461a55" fill-rule="evenodd"/>
              </g>
              <g id="Group_173" data-name="Group 173" transform="translate(56.29 9.46)">
                <path id="Path_201" data-name="Path 201" d="M168.618,249.845q3.492-16.537-5.4-18.2c4.411,3.359,5.209,8.389,2.437,15.037Z" transform="translate(-163.22 -231.642)" fill="#461a55" fill-rule="evenodd"/>
              </g>
              <g id="Group_174" data-name="Group 174" transform="translate(47.692 10.928)">
                <path id="Path_202" data-name="Path 202" d="M165.751,244.264l-.195-4.521-4.062,1.949c.075-6.79,1.909-10.053,5.552-9.734q5.084,2.639,2.642,10.656c-1.082,1.984-2.383,2.527-3.938,1.649" transform="translate(-161.495 -231.936)" fill="#461a55" fill-rule="evenodd"/>
              </g>
              <g id="Group_175" data-name="Group 175" transform="translate(70.49 13.357)">
                <path id="Path_203" data-name="Path 203" d="M166.069,232.424a27.157,27.157,0,0,1,2.287,5.353s5.822-.693,12.481,7.83c-4.172-10.517-11.8-12.6-14.768-13.183" transform="translate(-166.069 -232.424)" fill="#461a55" fill-rule="evenodd"/>
              </g>
              <g id="Group_176" data-name="Group 176" transform="translate(74.438 20.973)">
                <path id="Path_204" data-name="Path 204" d="M168.95,239.908l-2.093-5.956A15.615,15.615,0,0,1,176.7,242.9c-3.893-4.077-7.257-3.379-7.745-2.99" transform="translate(-166.857 -233.952)" fill="#461a55" fill-rule="evenodd"/>
              </g>
              <g id="Group_177" data-name="Group 177" transform="translate(64.433 15.535)">
                <path id="Path_205" data-name="Path 205" d="M164.854,232.861s6.522,7.72,6.843,21.009c.324,13.273,2.472,18.227,5.747,24.159-3.075-9.8-1.4-18.208-1.291-25.146.1-6.953-5.45-15.368-11.3-20.022" transform="translate(-164.853 -232.861)" fill="#461a55" fill-rule="evenodd"/>
              </g>
              <g id="Group_178" data-name="Group 178" transform="translate(79.411 31.168)">
                <path id="Path_206" data-name="Path 206" d="M167.859,236a35.172,35.172,0,0,1,.762,16.956,29.088,29.088,0,0,0,3,20.51c2.571,4.959,6.619,8.03,8.408,2.273,1.774-5.757,0-11.987-2.063-14.753a11.458,11.458,0,0,1-3.559,14.464c-1.989-3.27-1.6-6.943-1.506-13.388.089-6.425,1.595-17.021-5.044-26.062" transform="translate(-167.858 -236)" fill="#461a55" fill-rule="evenodd"/>
              </g>
              <g id="Group_179" data-name="Group 179" transform="translate(62.92 57.938)">
                <path id="Path_207" data-name="Path 207" d="M172.141,275.8c.07-1.171.13-2.627.07-4.378-9.665-11.025-5.946-30.055-5.946-30.055-4.032,11.285-.2,26.426,3.773,31.9a27.49,27.49,0,0,0,2.1,2.532" transform="translate(-164.551 -241.366)" fill="#461a55" fill-rule="evenodd"/>
              </g>
              <g id="Group_180" data-name="Group 180" transform="translate(74.349 33.568)">
                <path id="Path_208" data-name="Path 208" d="M184.674,250.37c-8.114-8.348-7.138-13.891-7.138-13.891-2.089,10.895,3.065,14.857,6.664,19.508,3.544,4.666,7.9,9.724,7.108,17.041-4.222,22.579-16.4,25.693-23.969,21.508a16.656,16.656,0,0,1-.5,4.027c5.069,3.234,12.282,3.931,20.809-6.415,12.879-15.655,5.129-33.475-2.975-41.778" transform="translate(-166.84 -236.479)" fill="#461a55" fill-rule="evenodd"/>
              </g>
              <g id="Group_181" data-name="Group 181" transform="translate(73.455 66.649)">
                <path id="Path_209" data-name="Path 209" d="M171.4,243.116s-1.759,1.505-.783,7.342c1,5.832,1.187,13.358-3.957,12.286,0,0,2.084,5.348,4.86,3.155,2.77-2.173,2.871-6.743,1.471-10.781-1.376-4.077-2.055-9.715-1.59-12" transform="translate(-166.664 -243.116)" fill="#461a55" fill-rule="evenodd"/>
              </g>
              <g id="Group_182" data-name="Group 182" transform="translate(67.105 77.668)">
                <path id="Path_210" data-name="Path 210" d="M170.967,245.327s-1.56,2-1.446,9.794c.135,7.78-.439,10.364-4.132,7.979,0,0,.773,6.4,3.553,5.093s4.212-7.461,3.479-11.364c-.715-3.9-2.538-7.442-1.456-11.5" transform="translate(-165.389 -245.326)" fill="#461a55" fill-rule="evenodd"/>
              </g>
              <g id="Group_183" data-name="Group 183" transform="translate(53.013 87.511)">
                <path id="Path_211" data-name="Path 211" d="M174.987,247.3a48.126,48.126,0,0,0-1.121,9.051c-.075,4.7-2.362,9.709-6.325,10.686-3.988,1.007-5.159-2.437-4.575-4.789,0,0-2.513,8.845,5.024,9.5,5.752.458,8.971-6.88,8.109-13.223-.847-6.33-1.261-9.361-1.111-11.225" transform="translate(-162.563 -247.3)" fill="#461a55" fill-rule="evenodd"/>
              </g>
              <g id="Group_184" data-name="Group 184" transform="translate(36.153 62.711)">
                <path id="Path_212" data-name="Path 212" d="M180.271,242.326s3.589,27.209-8.762,38.648c-5.808,5.388-13.751,3.931-11.168-10.875,0,0-5.1,19.144,6.071,18.128,11.2-1.022,18.5-23.924,13.856-45.9" transform="translate(-159.177 -242.326)" fill="#461a55" fill-rule="evenodd"/>
              </g>
              <g id="Group_185" data-name="Group 185" transform="translate(31.387 90.778)">
                <path id="Path_213" data-name="Path 213" d="M164.093,247.957s-6.489,11.035-1.405,20.385c1.8,2.77,6.041,2.822,7.277,1.519-3.908,4.2-8.493,3.216-10.681-1.231-3.19-6.564,1.53-17.415,4.81-20.669" transform="translate(-158.224 -247.957)" fill="#461a55" fill-rule="evenodd"/>
              </g>
              <g id="Group_186" data-name="Group 186" transform="translate(61.56 34.068)">
                <path id="Path_214" data-name="Path 214" d="M168.876,236.865s9.917,20.948.479,38.433a41.323,41.323,0,0,0-1.261-32.632s.035-.613-.867.489c-.708.922-1.884,2.876-2.822,1.072s3.549-9.2,4.467-7.367" transform="translate(-164.277 -236.572)" fill="#461a55" fill-rule="evenodd"/>
              </g>
              <g id="Group_187" data-name="Group 187" transform="translate(89.901 27.064)">
                <path id="Path_215" data-name="Path 215" d="M170.319,235.174s9.087,7.477,10.616,30.384c0,0-.961-14.963-9.739-24.054-.164,4.919.951,9.292,1.674,9.949s1.2-3.045.8-5.163c1.939,4.361,2.093,7.79.663,8.374-1.465.573-5.6-6.773-4.021-19.488" transform="translate(-169.963 -235.174)" fill="#461a55" fill-rule="evenodd"/>
              </g>
              <g id="Group_188" data-name="Group 188" transform="translate(44.682 82.249)">
                <path id="Path_216" data-name="Path 216" d="M162.347,250.209a36.788,36.788,0,0,0,3.34-3.963c.23,7.626-.075,9.585-4.794,15.845a18.02,18.02,0,0,0,1.456-11.883" transform="translate(-160.892 -246.246)" fill="#461a55" fill-rule="evenodd"/>
              </g>
              <g id="Group_189" data-name="Group 189" transform="translate(34.633 69.966)">
                <path id="Path_217" data-name="Path 217" d="M169.506,245.669c.549-1.127,5.438-3.424,7.711-.349.877,1.49-6.839,13.572-18.342,18.522a44.189,44.189,0,0,0,12.866-13.512c1.9-3.359-3.409-2.362-2.234-4.66" transform="translate(-158.875 -243.782)" fill="#461a55" fill-rule="evenodd"/>
              </g>
            </g>
            <g id="Group_191" data-name="Group 191" transform="translate(66.258 193.888)">
              <path id="Path_218" data-name="Path 218" d="M232.381,268.179c1.519-.608,1.774.13-.5,1-14.474,5.577-30.808,5.182-45.372,2.1-19.718-4.122-31.807-8.911-31.807-8.911l1.4-3.075s74.47,9.634,76.279,8.886" transform="translate(-154.703 -259.293)" fill="#dbbd81" fill-rule="evenodd"/>
            </g>
            <g id="Group_192" data-name="Group 192" transform="translate(71.51 167.67)">
              <path id="Path_219" data-name="Path 219" d="M155.755,256.266l.961-2.234c1.486.715,15.86,7.76,23.571,10.392,16.662,5.737,31.865,9.415,42.844,9.415a86.776,86.776,0,0,0,15.64-1.305,59.254,59.254,0,0,0,11.982-3.51c2.537-1.061,6.669-5.488,8.274-7.536.952-1.212,1.734-1.949,1.787-1.276,1.072,9.828-10.472,16.463-26.656,18.566-16.448,2.138-32.2-5.354-47.495-8.807-20.022-4.557-30.907-13.707-30.907-13.707" transform="translate(-155.755 -254.032)" fill="#bd96c5" fill-rule="evenodd"/>
            </g>
            <g id="Group_193" data-name="Group 193" transform="translate(71.509 168.613)">
              <path id="Path_220" data-name="Path 220" d="M155.755,256.052l1.146-1.83c1.5.693,15.676,7.332,23.386,9.989,16.662,5.737,31.865,9.41,42.844,9.41a84.693,84.693,0,0,0,15.64-1.321,56.344,56.344,0,0,0,16.328-5.539c.723-.249-.169.768-.513,1.072-4.67,4.212-15.831,7.167-21.059,7.825-16.467,2.109-31.57-2.437-46.867-5.926-20.022-4.531-30.907-13.682-30.907-13.682" transform="translate(-155.754 -254.222)" fill="#dbbd81" fill-rule="evenodd"/>
            </g>
            <g id="Group_194" data-name="Group 194" transform="translate(66.542 170.903)">
              <path id="Path_221" data-name="Path 221" d="M248.886,271.144l1.161,1.759s.474.543-3.708,3.968c-3.325,2.737-10.378,8.209-14.943,9.869-14.524,5.263-30,4.232-45.12.8-19.7-4.467-31.521-9.924-31.521-9.924l7.038-22.937s13.612,7.017,21.821,9.839c16.822,5.772,27.034,9.041,43.438,9.186,14.2.125,21.831-2.562,21.831-2.562" transform="translate(-154.756 -254.684)" fill="#bd96c5" fill-rule="evenodd"/>
            </g>
            <g id="Group_195" data-name="Group 195" transform="translate(69.233 175.212)">
              <path id="Path_222" data-name="Path 222" d="M180.533,264.2c17.056,5.862,27.583,9.226,44.345,9.335,15.137.145,20.325-2.178,20.325-2.178s-9.4,8.593-17.711,11.668c-10.846,4.032-28.575,3.744-43.358.214a220.527,220.527,0,0,1-28.834-8.777l5.9-18.915a169.986,169.986,0,0,0,19.334,8.653" transform="translate(-155.3 -255.546)" fill="#dbbd81" fill-rule="evenodd"/>
            </g>
            <g id="Group_196" data-name="Group 196" transform="translate(87.268 166.155)">
              <path id="Path_223" data-name="Path 223" d="M195.676,253.729s-9.709,5.233-9.44,36.19c.1,12.536,3.225,18.227,3.225,18.227L174.1,298.332,158.915,308.2s1.649-12.879,1.649-18.128c0-5.283.214-27.692,7.761-33.354a.989.989,0,0,1,.852-.279c3.325.28,15.047,1.581,26.5-2.706" transform="translate(-158.915 -253.729)" fill="#dbbd81" fill-rule="evenodd"/>
            </g>
            <g id="Group_197" data-name="Group 197" transform="translate(85.565 164.77)">
              <path id="Path_224" data-name="Path 224" d="M158.575,312.19l.23-3.015c.04-.357,1.608-12.874,1.608-18,0-10.521,1.086-28.9,8.283-34.466a2.512,2.512,0,0,1,1.72-.663h.268l.483.06c1.475.125,4,.349,7.162.349a51.991,51.991,0,0,0,18.187-3.006l1.221,2.7c-.064.045-9.769,4.775-9.624,34.083.114,14.385,1.8,13.7,2.437,16.473l1.939,5.354-17.021-10.865Zm16.9-13.258,13.4,7.952c-2.109-6.489-2.687-5.741-2.777-15.84-.135-18.87,3.379-28.5,6.37-33.225a60.562,60.562,0,0,1-14.14,1.6h0c-3.29,0-5.876-.234-7.427-.349l-.339-.045c-4.481,3.409-7.1,15.427-7.805,32.113-.255,6.086-1.042,8.059-1.779,16.962Z" transform="translate(-158.575 -253.451)" fill="#bd96c5"/>
            </g>
            <g id="Group_198" data-name="Group 198" transform="translate(92.069 169.404)">
              <path id="Path_225" data-name="Path 225" d="M170.177,291.066l-10.3,6.823.06-.708c.927-9.1.742-6.22.742-9.709,0-16.409,2.591-27.966,7.292-32.592l.454.473c-4.576,4.477-7.1,15.9-7.1,32.119,0,3.429.229-.329-.678,9.1l9.525-6.27,9.988,6.6c-1.7-4.66-2.467-4.316-2.418-9.549.2-13.991,1.769-25.4,5.393-32.969l.583.289c-3.589,7.467-5.408,18.756-5.283,32.677.025,4.127,1.38,6.579,3.2,12.261Z" transform="translate(-159.88 -254.379)" fill="#bd96c5"/>
            </g>
            <g id="Group_199" data-name="Group 199" transform="translate(57.493 166.521)">
              <path id="Path_226" data-name="Path 226" d="M168.347,284.5c.255-1.127.5-2.273.787-3.4a2.3,2.3,0,0,1,.164-.688c1.3-5.4,2.859-10.364,2.859-10.364.364-1.266.715-2.4,1.017-3.18a22.36,22.36,0,0,1,2.118-3.564c3.075-3.862,7.765-1.993,7.765-1.993-.164-5.009-3.8-7.91-9.475-7.451-5.629.478-7.641,6.858-7.72,9.879-.095,3-3.578,4.735-5.488,6.126-1.974,1.355-4.322,1.575-5.573,2.971-1.32,1.39,1.7,4.013,4.605,2.931l2.288-.872a17.817,17.817,0,0,1-2.68,7.541c-2.2,2.841-6.071,1.55-6.071,1.55s-.524,8.244,7.137,8.009c4.79-.159,7.148-3.938,8.259-7.406v-.08" transform="translate(-152.937 -253.805)" fill="#dbbd81" fill-rule="evenodd"/>
            </g>
            <g id="Group_200" data-name="Group 200" transform="translate(56.529 165.526)">
              <path id="Path_227" data-name="Path 227" d="M160.543,293.756h0A7.334,7.334,0,0,1,155,291.6c-2.478-2.662-2.258-6.733-2.227-6.908l.075-1.271,1.227.39a5.925,5.925,0,0,0,1.709.254,3.843,3.843,0,0,0,3.23-1.456,14.559,14.559,0,0,0,2.173-5.393l-.618.254a5.153,5.153,0,0,1-1.78.334,4.758,4.758,0,0,1-4.289-2.447,2.169,2.169,0,0,1,.329-2.4,8.522,8.522,0,0,1,3.235-1.89,12.554,12.554,0,0,0,2.547-1.246c.29-.234.653-.439,1.042-.7,1.759-1.171,3.922-2.632,3.982-4.636.114-3.306,2.387-10.3,8.637-10.825.409-.02.848-.05,1.237-.05,5.592,0,9.176,3.235,9.326,8.473l.064,1.51L183.479,263a7.1,7.1,0,0,0-2.283-.374,5.272,5.272,0,0,0-4.326,2.074,18.092,18.092,0,0,0-2,3.335c-.279.693-.6,1.724-.992,3.061-.02.079-1.56,5.034-2.841,10.337l-.184.643c-.259,1.271-.518,2.347-.733,3.365l-.015.16-.025.06c-1.608,5.074-4.875,7.952-9.186,8.095Zm-5.777-7.8a7.388,7.388,0,0,0,1.68,4.289,5.32,5.32,0,0,0,4.1,1.53h.284c4.311-.14,6.375-3.638,7.342-6.585V285.1c.22-1.052.468-2.133.763-3.389a3.438,3.438,0,0,1,.194-.857c1.3-5.313,2.851-10.275,2.859-10.327.4-1.39.742-2.487,1.042-3.245l.035-.064a20.853,20.853,0,0,1,2.234-3.738,7.291,7.291,0,0,1,5.892-2.821,8.365,8.365,0,0,1,1.535.13c-.648-3.294-3.259-5.2-7.227-5.2-.309,0-.7,0-1.072.029-4.949.429-6.729,6.2-6.829,8.935-.06,3.016-2.836,4.85-4.86,6.205-.389.23-.7.458-1.012.668a12.709,12.709,0,0,1-2.965,1.471,7.013,7.013,0,0,0-2.472,1.391c-.025.025-.06.075,0,.268a2.915,2.915,0,0,0,2.492,1.276,3.164,3.164,0,0,0,1.072-.195l3.788-1.48-.189,1.6c0,.05-.553,4.95-2.859,8.049a5.824,5.824,0,0,1-4.815,2.248A5.166,5.166,0,0,1,154.766,285.961Z" transform="translate(-152.75 -253.601)" fill="#bd96c5"/>
            </g>
            <g id="Group_201" data-name="Group 201" transform="translate(95.967 174.151)">
              <path id="Path_228" data-name="Path 228" d="M163.467,262.3l-2.043-.733v-6.235h.3a27.378,27.378,0,0,0,4.082,3.887,5.244,5.244,0,0,0,2.9,1.127,2.305,2.305,0,0,0,1.65-.633A1.966,1.966,0,0,0,171,258.26a2.473,2.473,0,0,0-.439-1.406,2.992,2.992,0,0,0-1.351-.937v-.259a3.464,3.464,0,0,1,2.2.992,2.719,2.719,0,0,1,.773,2.014,2.983,2.983,0,0,1-.812,2.128,2.623,2.623,0,0,1-1.974.872,3.761,3.761,0,0,1-1.575-.379,10.451,10.451,0,0,1-2.687-1.864c-1.411-1.3-2.234-2.074-2.546-2.422v2.761a5.938,5.938,0,0,0,.075,1.177,1.831,1.831,0,0,0,.239.608,1.6,1.6,0,0,0,.563.464Z" transform="translate(-157.626 -255.334)" fill="#461a55"/>
              <path id="Path_229" data-name="Path 229" d="M166.536,257.018a8.121,8.121,0,0,1,3.1.563,4.525,4.525,0,0,1,1.944,1.45,2.631,2.631,0,0,1,.514,1.451,2.825,2.825,0,0,1-1.251,2.183,6.646,6.646,0,0,1-4.177,1.186,8.568,8.568,0,0,1-3.1-.5,3.952,3.952,0,0,1-1.839-1.361,2.685,2.685,0,0,1-.6-1.589,2.887,2.887,0,0,1,1.774-2.492A7.354,7.354,0,0,1,166.536,257.018Zm-.2,1.535a9.873,9.873,0,0,0-3.549.536c-.787.3-1.177.727-1.177,1.33a1.276,1.276,0,0,0,.389.857,2.275,2.275,0,0,0,1.266.7,15.082,15.082,0,0,0,3.768.357,10.23,10.23,0,0,0,3.011-.369,2.759,2.759,0,0,0,1.266-.733,1.162,1.162,0,0,0,.268-.762,1.237,1.237,0,0,0-.479-.952,4.042,4.042,0,0,0-2.049-.763A17.476,17.476,0,0,0,166.332,258.553Z" transform="translate(-158.845 -248.62)" fill="#461a55"/>
              <path id="Path_230" data-name="Path 230" d="M170.556,258.836l1.251,2.577v.25h-8.922a4.426,4.426,0,0,0-1.092.075.558.558,0,0,0-.349.314,2.3,2.3,0,0,0-.114.947h-.294v-3.962h.294a2.343,2.343,0,0,0,.114.962.73.73,0,0,0,.294.294,4.058,4.058,0,0,0,1.146.08H168.6a8.612,8.612,0,0,0,1.475-.07.6.6,0,0,0,.364-.195.694.694,0,0,0,.12-.344,1.778,1.778,0,0,0-.259-.787Z" transform="translate(-159.172 -241.377)" fill="#461a55"/>
              <path id="Path_231" data-name="Path 231" d="M164.575,267.176h-1.121v-1.42h-2.791v-1.281h2.791v-4.467h1l6.983,4.88v.866h-6.864Zm0-2.7h5.209l-5.209-3.7Z" transform="translate(-160.662 -236.704)" fill="#461a55"/>
            </g>
            <path id="Path_232" data-name="Path 232" d="M179.418,365.36a8.04,8.04,0,0,1-1.017.464l-1.236-1.546c-.179-.179-.389-.389-.663-.642L173,365.36c-1.2.7-2.084,1.241-2.712,1.565l-.334.169c-.389.17-1.326.693-2.831,1.519l-.344.244-1.176.573-1.162.708-.588.339a17.622,17.622,0,0,0-1.787,1.121,2.135,2.135,0,0,0-.284.3,2.242,2.242,0,0,0,.07.274c.054.074.08.2.13.274a10.7,10.7,0,0,0,.493,1.231l.055.245a3.977,3.977,0,0,1,.214.613,2.235,2.235,0,0,1-.5.3,1.171,1.171,0,0,1-.489.17c-.114-.149-.284-.414-.473-.723s-.309-.563-.389-.673c-.483-1.181-.893-2.039-1.177-2.582-.159-.239-.259-.489-.408-.748a6.213,6.213,0,0,0-.349-.683c-.155-.3-.588-1.012-1.34-2.124a3.1,3.1,0,0,1-.394-.588,8.546,8.546,0,0,1-.447-.872,2.335,2.335,0,0,0,.4-.255c.179-.06.364-.154.613-.249l1.715,2.223a.459.459,0,0,0,.549.064l.474-.3.239-.134.588-.309.474-.249.1-.045a.357.357,0,0,1,.234-.155l1.73-.953a4.049,4.049,0,0,1,.369-.229l.429-.22a4.069,4.069,0,0,0,.474-.23c.139-.095.454-.284.937-.563-.089-.274-.189-.518-.249-.688l-1.112-2.049-.553-.978-1.33-2.472-1.391-2.347a5.546,5.546,0,0,0-.643-.927c-.319.154-1.081.553-2.3,1.211l-.625.3-2.277,1.351-.858.663a.488.488,0,0,0-.089.3,10.1,10.1,0,0,0,.424,2.183,4.7,4.7,0,0,1,.124.563,3.293,3.293,0,0,1-.832.324,1.163,1.163,0,0,1-.215-.357l-.723-1.305a19.645,19.645,0,0,0-1.256-2.646c-.1-.209-.195-.357-.259-.479l-1.052-1.734a1.98,1.98,0,0,0-.274-.439,5.227,5.227,0,0,1-.663-.953c-.139-.268-.289-.563-.458-.957a8.318,8.318,0,0,1,.983-.479c.638.733,1.072,1.226,1.261,1.43a5.136,5.136,0,0,0,.777.583l.29-.07.279-.124.309-.2.2-.089a3.779,3.779,0,0,0,.447-.189l.344-.195c.384-.23.618-.369.668-.408l1.724-.957,1.286-.742,1.749-.928c.424-.2,1.212-.678,2.418-1.38l1.933-1.1,1.6-.882c.3-.189.663-.357,1.1-.583a3.305,3.305,0,0,0-.16-.614,11.289,11.289,0,0,1-.5-2.227l.952-.573c.194.364.323.573.348.638a14.706,14.706,0,0,1,.763,1.535,36.178,36.178,0,0,0,1.876,3.649,28.7,28.7,0,0,0,1.759,2.791,1.575,1.575,0,0,1,.179.513,4.148,4.148,0,0,1-.977.383l-.812-.912-.752-.976c-.1-.075-.2-.195-.364-.344a39.184,39.184,0,0,0-3.733,1.884l-1.2.573a14.687,14.687,0,0,1-1.655,1.072,9.968,9.968,0,0,0,.528,1.1l3.464,6.36.05.149.025.085a1.593,1.593,0,0,1,.135.214c.139.224.249.433.365.6l.194.383a2.094,2.094,0,0,0,.429.523l1.052-.5.179-.089a3.2,3.2,0,0,1,.454-.294l4.216-2.343c.224-.139.468-.284.692-.439l.025-.159-.8-2.219c-.045-.119-.055-.2-.075-.249a.792.792,0,0,1-.021-.384c.179-.15.315-.24.379-.294q.179-.074.524-.209c.184.344.339.6.474.837.124.195.2.4.3.558a1.818,1.818,0,0,1,.1.254l1.011,1.966c.214.473.536,1.127.983,1.934l.179.3c.244.369.369.578.409.633C178.217,363.306,178.73,364.158,179.418,365.36Zm-13.154-25.041a13.47,13.47,0,0,0-.524-2.118l-.224-.6c-.209-2.447-.373-3.967-.447-4.6a1.776,1.776,0,0,0-.373.035c-.149.035-.389.064-.752.134v1.121a2.906,2.906,0,0,1-.184,1.42.715.715,0,0,1-.549.3,3.415,3.415,0,0,1-1.142-.13c-2.014-.374-3.29-.618-3.842-.778l-.907-5.861,2.836-1.69,1.4-.858a1.23,1.23,0,0,1,.414-.139.522.522,0,0,1,.364.095,2.854,2.854,0,0,1,.433.842l.653,1.649a5.932,5.932,0,0,0,1.036-.114l-.149-.748-.536-2.591c-.085-.357-.2-.947-.319-1.744-.11-.738-.2-1.545-.289-2.5-.065-.917-.155-1.765-.268-2.512a2.315,2.315,0,0,0-.357.035c-.149.031-.414.1-.748.194a6.053,6.053,0,0,0-.114,1.421,2.026,2.026,0,0,1-.179.957,2.636,2.636,0,0,1-.683.593,17.859,17.859,0,0,1-1.85,1.131c-.912.528-1.58.918-2.014,1.191-.762.483-1.734,1.072-2.915,1.744-1.2.678-2.412,1.43-3.648,2.238l-5.907,3.673-.268.179.085.7c.064.309.114.638.184.983L154.62,336.1l8.623,1.8a2.818,2.818,0,0,1,.983.508,4.435,4.435,0,0,1,.613,1.371c.184.464.324.8.408.977l1.077-.139Zm-9.739-5.557c-.349-2.412-.558-3.808-.633-4.247l-.064-.379c-.893.447-1.876,1.007-3.025,1.69-1.127.683-1.974,1.236-2.591,1.65Zm6.759-21.417c.129-1.555.268-2.866.433-3.978l.433-2.611a19.2,19.2,0,0,0,.2-2.637,11.228,11.228,0,0,0-.414-2.841,5.643,5.643,0,0,0-1.176-2.033,3.721,3.721,0,0,0-1.4-1.161,6.263,6.263,0,0,0-2.078-.683,4.534,4.534,0,0,0-3.27.762,6.344,6.344,0,0,0-2.428,3.29,12.3,12.3,0,0,0-.753-2.128,4.652,4.652,0,0,0-1.171-1.465,3.793,3.793,0,0,0-1.635-.653,5.6,5.6,0,0,0-1.645.05,3.619,3.619,0,0,0-1.485.693,3.8,3.8,0,0,0-1.2,1.2,6.011,6.011,0,0,0-.692,1.186,10.338,10.338,0,0,0-.723,2.512l-.135.983c-.089.447-.1.708-.124.8,0,.139-.025.259-.025.379l-.08.6-.543,5.063-.414,3.464,1.1.114c.224-.792.364-1.291.409-1.49a1.787,1.787,0,0,1,.314-.893c.07-.06.1-.114.17-.124a4.19,4.19,0,0,1,1.456.05c2.891.339,4.666.553,5.361.648l6.564.893a16.008,16.008,0,0,1,2.512.489,2.787,2.787,0,0,1,.663.364,7.838,7.838,0,0,1,.164,1.67c0,.357.01.653.02.9l1.241.224c.2-2,.317-3.188.352-3.636Zm-11.06-5.163a13.563,13.563,0,0,0,.289-1.45,5.942,5.942,0,0,0-.364-3.634,3.471,3.471,0,0,0-2.781-1.595,3.236,3.236,0,0,0-2.642.772,5.155,5.155,0,0,0-1.471,3.245c-.03.433-.064,1.042-.064,1.72a10.251,10.251,0,0,0,1.021.144c.894.07,2.1.224,3.688.433l1.306.239a8.484,8.484,0,0,1,1.021.124Zm9.854,1.176a4.94,4.94,0,0,0,.683-1.814,6.443,6.443,0,0,0-.13-2.941,3.588,3.588,0,0,0-1.241-1.834,5.565,5.565,0,0,0-2.323-.852,4.874,4.874,0,0,0-2.467.214,3.978,3.978,0,0,0-1.925,1.645,9.051,9.051,0,0,0-.862,3.23,3.246,3.246,0,0,0-.05,1.366l1.889.249,2.277.364,3.553.447a2.033,2.033,0,0,0,.6-.073Zm5.093-16.019c.309-1,.558-1.769.742-2.288l1.092-2.542c.563-1.107.887-1.71.962-1.84a1.967,1.967,0,0,0,.189-.364,4.11,4.11,0,0,1,.184-.536,1.343,1.343,0,0,1,.115-.309,2.705,2.705,0,0,0-.5-.2,3.328,3.328,0,0,0-.742-.239c-.274.468-.439.758-.489.823a8.685,8.685,0,0,1-.912,1.519.714.714,0,0,1-.334-.089l-.549-.214-2.9-1.167-1.914-.8-3.818-1.53c-.893-.348-2.128-.868-3.743-1.55-.274-.079-.625-.2-1.037-.364a6.421,6.421,0,0,1-1.036-.536,7.585,7.585,0,0,1,.135-1.371c.075-.536.13-1.032.149-1.475-.249-.114-.474-.214-.625-.3-.12-.04-.284-.089-.458-.149-.065.19-.209.634-.447,1.331-.423,1.3-.752,2.243-.983,2.791-.05.13-.2.447-.429.947l-1.819,4.057,1.266.479c.07-.12.145-.3.234-.479a6.778,6.778,0,0,1,1.142-1.809,3.442,3.442,0,0,1,.518.095l.625.214,1.68.625.748.343,1.914.758c.06.02,1.047.454,2.921,1.276l.8.3,3.28,1.351,1.7.692a2.478,2.478,0,0,1,1.117.748,6.039,6.039,0,0,1-.07,1.608c-.08.489-.114.852-.155,1.061l1.067.424c.048-.18.182-.619.377-1.285ZM173.72,279c.847-1.316,1.575-2.427,2.248-3.329l1.6-2.093a17.189,17.189,0,0,0,1.43-2.258,12.4,12.4,0,0,0,.967-2.666,6.679,6.679,0,0,0-.08-2.378,4.275,4.275,0,0,0-.693-1.674,7.935,7.935,0,0,0-1.505-1.585,4.623,4.623,0,0,0-3.269-.843,6.578,6.578,0,0,0-3.688,1.769,16.9,16.9,0,0,0,.364-2.243,4.451,4.451,0,0,0-.379-1.839,3.806,3.806,0,0,0-1.146-1.346,4.667,4.667,0,0,0-1.475-.723,4.087,4.087,0,0,0-1.624-.12,5.043,5.043,0,0,0-1.625.528,9.721,9.721,0,0,0-1.161.723,9.138,9.138,0,0,0-1.787,1.865l-.593.812c-.279.349-.424.574-.5.668a1.223,1.223,0,0,0-.214.3l-.339.5-2.876,4.2-1.983,2.871.922.643c.563-.608.927-1,1.061-1.142a1.965,1.965,0,0,1,.688-.638.313.313,0,0,1,.234-.04,7.641,7.641,0,0,1,1.256.723c2.377,1.65,3.863,2.671,4.386,3.085l5.4,3.858a23.19,23.19,0,0,1,2,1.63,2.484,2.484,0,0,1,.4.625,5.953,5.953,0,0,1-.638,1.545l-.389.833.992.748c1.11-1.647,1.788-2.669,2.017-3.017Zm-7.351-9.774a9.769,9.769,0,0,0,.932-1.142,6.254,6.254,0,0,0,1.39-3.375A3.418,3.418,0,0,0,166.976,262a3.206,3.206,0,0,0-2.671-.558,5.1,5.1,0,0,0-2.826,2.173c-.244.373-.536.877-.872,1.519.2.155.474.324.827.588.748.483,1.774,1.171,3.031,2.113l1.052.8c.2.121.465.314.853.59Zm8.159,5.682a4.714,4.714,0,0,0,1.44-1.286,6.56,6.56,0,0,0,1.276-2.646,3.345,3.345,0,0,0-.255-2.219,5.026,5.026,0,0,0-1.66-1.839,4.407,4.407,0,0,0-2.278-.952,3.9,3.9,0,0,0-2.462.543,9.828,9.828,0,0,0-2.272,2.428,4.322,4.322,0,0,0-.688,1.176l1.545,1.127,1.864,1.386,2.915,2.055a1.424,1.424,0,0,0,.575.227Zm16.134-38.723c1.117-.447,1.839-.558,2.178-.357a9.327,9.327,0,0,1,1.46,2.617l3,6.783a21.068,21.068,0,0,0,1.556,2.936,6.1,6.1,0,0,0,2.22,2,6.027,6.027,0,0,0,3.075.483,11.32,11.32,0,0,0,4.052-1.087,12.56,12.56,0,0,0,3.18-1.944,7.839,7.839,0,0,0,1.929-2.2,5.872,5.872,0,0,0,.773-2.253,5.023,5.023,0,0,0-.12-1.787,28.041,28.041,0,0,0-1.535-3.978L211,234.569c-.329-.7-.663-1.38-.992-2.039a2.975,2.975,0,0,1-.284-.583c-.085-.179-.224-.447-.357-.787-.259-.578-.474-.983-.6-1.216a4.514,4.514,0,0,1-.379-.727.658.658,0,0,1-.045-.6,4.811,4.811,0,0,1,.972-.673,5.957,5.957,0,0,0,1.042-.663,1.01,1.01,0,0,0-.13-.4,2.083,2.083,0,0,0-.357-.613l-.254.07a24.5,24.5,0,0,1-2.591,1.291l-2.761,1.086-1.127.493.454,1.111.209-.045,1.316-.618a1.754,1.754,0,0,1,1.256,0c.244.095.5.433.792.983l.4.7c1.54,2.776,2.811,5.288,3.8,7.585a12.423,12.423,0,0,1,1.052,3.038,6.772,6.772,0,0,1-.08,1.787,2.769,2.769,0,0,1-.5,1.191,4.58,4.58,0,0,1-1.007,1.241,11.059,11.059,0,0,1-2.4,1.48,5.563,5.563,0,0,1-2.607.447,3.588,3.588,0,0,1-1.815-.613,6.07,6.07,0,0,1-1.84-2.273l-1.759-3.469-1.047-2.5-.578-1.106-.563-1.346-.254-.514c-.095-.174-.209-.414-.344-.715a5.581,5.581,0,0,1-.6-1.774c.085-.274.389-.553.937-.787a11.917,11.917,0,0,0,1.59-.837l-.025-.11-.4-.827-.095-.189a9.359,9.359,0,0,1-1.117.528c-.558.259-1.186.574-1.894.937-.728.344-1.461.7-2.213,1.022-.23.1-.977.4-2.253.887-.518.214-1.036.423-1.525.625-.17.1-.34.179-.528.268l.558,1.1a2.922,2.922,0,0,0,.607-.229Zm32.4-11.258a3.568,3.568,0,0,1,1.241.777,1.482,1.482,0,0,1,.373.625,8.522,8.522,0,0,1,.315,2.487l.179,3.16.145,5.049.015.882c0,.344.04,1.355,0,3.015,0,.558-.045.912-.23,1.052a3.553,3.553,0,0,1-1.535.255c-.357,0-.536-.015-.609,0a4.644,4.644,0,0,0-.723.089v.578c.01.179.045.384.045.633a2.657,2.657,0,0,0,.543.045l.893-.085c.553-.055,1.655-.145,3.306-.224,1.769.115,2.836.17,3.16.139l.613-.04-.114-1.306a3.277,3.277,0,0,0-.414-.089,12.182,12.182,0,0,1-2.646-.239c-.095-.214-.164-.373-.209-.468a4.141,4.141,0,0,1-.075-.578c-.13-.992-.224-1.9-.294-2.751l-.17-2.029-.015-1.1c-.015-.379-.015-.723-.035-1.077l-.364-5.782,2.612,2.208c1.072.893,2.273,1.958,3.6,3.16l2.009,1.933L237.4,237.8l3.9,3.613,1.949,1.859,1.774-.124-.04-.837c0-.08-.035-.334-.089-.753l.03-.837-.085-.823-.064-1.9a6.2,6.2,0,0,0-.05-.842l-.364-5.45c0-.357-.06-.668-.075-.937-.11-.877-.185-2.074-.255-3.574-.02-.7-.055-1.117-.055-1.311-.05-.384-.07-.593-.07-.658a.983.983,0,0,1,.124-.583,8.589,8.589,0,0,1,.812-.578,6.432,6.432,0,0,1,1.142-.364,2.2,2.2,0,0,0,.708-.314l-.06-1.011c-.2,0-.394.02-.648.04l-3.369.224-3.07.185-.369.07v.922a4.737,4.737,0,0,0,1.271.314,2.907,2.907,0,0,1,1.54.474c.149.135.224.536.255,1.211,0,.22.12,1,.268,2.343a20.32,20.32,0,0,1,.179,2.333c.07.858.13,1.6.189,2.213s.139,1.465.2,2.521l.124,1.8.01.389c-6.56-6.076-10.347-9.6-11.394-10.626s-2.4-2.234-4.053-3.634c-.2-.01-.373,0-.483,0-.07.01-.394.025-.962.075-.553.045-.867.055-.952.07a2.829,2.829,0,0,1-.357-.015c-.625,0-.952.015-1.1.015-.22,0-.683.035-1.3.089l-.433.015-1.355.055.114,1.092a11.082,11.082,0,0,1,2.113.373ZM252.1,244.1c1.047.164,1.824.3,2.373.419l2.68.7c1.171.4,1.809.663,1.954.715a2.237,2.237,0,0,0,.383.139c.03.01.268.04.574.115a1.527,1.527,0,0,1,.284.06c.075-.224.114-.389.164-.514a6.393,6.393,0,0,0,.11-.763c-.489-.209-.792-.324-.867-.379a11.324,11.324,0,0,1-1.645-.678,1.046,1.046,0,0,1,.055-.349l.145-.588.727-3.031.536-2.009.983-4c.214-.922.563-2.213,1.022-3.908.04-.289.124-.625.214-1.086a6.6,6.6,0,0,1,.364-1.121c.357-.015.837-.05,1.386-.029.528,0,1.052-.02,1.49-.045.075-.284.135-.5.184-.678.025-.12.079-.284.1-.468-.2-.05-.658-.13-1.4-.254-1.34-.259-2.3-.447-2.891-.593-.139-.04-.464-.13-1.007-.284l-4.256-1.266-.294,1.326a2.384,2.384,0,0,0,.508.179,6.158,6.158,0,0,1,1.949.882,3.162,3.162,0,0,1,0,.5l-.159.663L257.4,229.5l-.239.792-.5,2.014c-.015.065-.284,1.086-.847,3.075l-.195.8-.868,3.429-.447,1.8a2.9,2.9,0,0,1-.593,1.221,6.293,6.293,0,0,1-1.625.16c-.464-.015-.827-.015-1.052,0l-.274,1.086c.2.03.665.114,1.333.226Zm20-14.251a5.293,5.293,0,0,1,1.092.872,1.784,1.784,0,0,1,.274.777c0,.159-.035,1.316-.164,3.439l-.419,4.58-.518,7.212c-.234,2.074-.369,3.265-.439,3.6-.029.329-.095.663-.134,1a5.99,5.99,0,0,0,.738.409,4.224,4.224,0,0,0,.688.344q.7-.584,2.337-2.208l.274-.179c.862-.758,1.39-1.191,1.519-1.311.508-.469,1.027-.893,1.46-1.281A17.181,17.181,0,0,0,280.121,246l4.191-3.609a40.23,40.23,0,0,1,3.544-2.871,2.091,2.091,0,0,1,.638-.259,15.12,15.12,0,0,1,2.542.249A2.542,2.542,0,0,0,291.3,239l.268-.447c-.357-.16-.827-.357-1.386-.588a16.987,16.987,0,0,1-2.014-.917c-.752-.414-1.486-.842-2.234-1.345-.727-.484-1.216-.783-1.361-.862a5.364,5.364,0,0,0-.394.608,1.606,1.606,0,0,0-.135.483c.135.11.329.214.514.357a2.755,2.755,0,0,1,.464.344,2.982,2.982,0,0,1,1.1,1.082.584.584,0,0,1,.045.6,3.673,3.673,0,0,1-.793.917q-.568.531-1.6,1.525c-.209.234-.344.373-.474.493l-.927.763-4.021,3.653-1.859,1.545c.095-.742.17-1.545.22-2.407l.339-4.372a39.075,39.075,0,0,1,.414-4.665l.209-1.421a.6.6,0,0,1,.13-.329.536.536,0,0,1,.313-.274,2.083,2.083,0,0,1,1.146.05c.164.035.748.249,1.709.613.05-.075.224-.474.563-1.137l-.983-.536c-.339-.115-.823-.309-1.45-.588-.862-.384-1.43-.653-1.69-.812a43.274,43.274,0,0,1-4.361-2.552c-.11-.05-.383-.229-.833-.489l-.643,1.2Zm24.991,14.554c.179.189.284.383.447.536a10.115,10.115,0,0,1,1.027,1.386c.089.149.195.3.244.394a.719.719,0,0,1,.16.488,2.313,2.313,0,0,0-.189.249l-1.305,1.415-1.271,1.216-1.724,1.787-1.291,1.206-4.2,4.11-.324.323c-.329.309-.536.529-.648.643a3.263,3.263,0,0,1-.942.673,9.224,9.224,0,0,1-1.9-1.266,10.513,10.513,0,0,0-.967-.733l-.767.773,1.361,1.306.447.464c1.355,1.236,2.443,2.293,3.319,3.2,1.724,1.787,3.2,3.35,4.361,4.685,1.684,1.889,2.751,3.025,3.135,3.464.274.268.678.653,1.152,1.117l1.471-1.037,2.5-1.64.429-.249a4.9,4.9,0,0,1,.524-.414,4.269,4.269,0,0,0-.379-.357,3.771,3.771,0,0,0-.583-.549,7.893,7.893,0,0,1-3.306.768,3.73,3.73,0,0,1-2.043-.625,18.465,18.465,0,0,1-2.8-2.428,12.709,12.709,0,0,1-2.492-3.038.866.866,0,0,1,.279-.893l2.418-2.3c.613-.578,1.351-1.281,2.218-2.144a3.123,3.123,0,0,1,.384-.369c.625.5,1.465,1.331,2.562,2.442a13.179,13.179,0,0,1,1.525,1.74,1.113,1.113,0,0,1,.125.738,6.39,6.39,0,0,1-.927,1.655,10.107,10.107,0,0,0-.558.857l.773.8.24-.224c.224-.224.563-.549.942-.983.447-.454.743-.8.942-.977.155-.13.334-.314.548-.5.23-.2.753-.7,1.525-1.45.344-.329.852-.823,1.481-1.519l-.625-.638-.179-.155a15.475,15.475,0,0,1-2.014,1.2,1.534,1.534,0,0,1-.822.114,3.552,3.552,0,0,1-1.237-.847c-.578-.518-1.555-1.44-2.816-2.761-.135-.139-.274-.319-.439-.523l1.4-1.351,1.894-1.787c1.271-1.246,2.008-1.944,2.183-2.144.715.7,1.519,1.5,2.4,2.412.777.783,1.475,1.565,2.088,2.312.357.439.553.673.613.748a4.1,4.1,0,0,1,.613.8,7.3,7.3,0,0,1-.339,1.709l-.364,1.241c-.17.409-.315.708-.4.922.155.209.289.334.334.414l.468.433a2.521,2.521,0,0,0,.214-.184l.447-.469,2.312-2.248a1.084,1.084,0,0,0,.374-.758,16.226,16.226,0,0,0-1.765-2.178l-1.974-2.014c-1.3-1.371-2.781-2.822-4.475-4.431-1.117-1.072-1.787-1.74-2.039-2.018A19.144,19.144,0,0,1,299,244.786c-.244-.357-.593-.748-.977-1.216Zm3.659,31.1a4.562,4.562,0,0,0-.473.259l.357.6a16.289,16.289,0,0,0,.833,1.55l1.1,1.876c.05.1.135.28.268.523.179.364.653,1.595,1.455,3.683l.3.578c.02.055.075.159.164.339a7.738,7.738,0,0,0,1.086-.447,13.242,13.242,0,0,0-.409-2.144,3.944,3.944,0,0,1-.139-1.2l2.687-1.187,3.065-1.59a7.845,7.845,0,0,1,.977-.423c.23.429.394.752.5.937a3.043,3.043,0,0,1,.414,1.58,6.746,6.746,0,0,1-1.072,1.744c-1.49,1.966-2.591,3.365-3.29,4.212-.259.334-.658.862-1.152,1.6l-.7.887c.085.174.2.357.349.6.329.536.5.842.553.937l.688,1.415c.2.433.373.818.5,1.141l.268.553.259.773.179.279.149.369a1.134,1.134,0,0,0,.344-.145,1.311,1.311,0,0,0,.369-.279,4.693,4.693,0,0,0,0-1.192,4.7,4.7,0,0,1,.015-1.326,14,14,0,0,1,1.141-1.919l2.542-4c.268-.409.6-.968.942-1.62.189-.319.348-.573.5-.788a5.911,5.911,0,0,0,3.095,1.933,4.5,4.5,0,0,0,2.981-.333,4.842,4.842,0,0,0,2.542-3.325,7.4,7.4,0,0,0-.762-5.272,36.782,36.782,0,0,0-1.85-3.389l-.937-1.7-.389-.728c-.04-.055-.179-.439-.473-1.137-.339-.643-.549-1.072-.653-1.276a8.488,8.488,0,0,0-.733-1.256l-.179.029-.822.423c.085.274.3.8.6,1.59l.224.893c-.518.294-1.749.927-3.678,1.876-.893.433-1.829.883-2.859,1.355l-.773.329-1.311.673-1.7.773-3.085,1.54c-.783.369-1.226.583-1.361.638-.089.01-.24.045-.458.095a7.4,7.4,0,0,1-.932-1.142,2.911,2.911,0,0,0-.823-.926,2.1,2.1,0,0,0-.445.154Zm12.58,1.714c.179.474.334.783.429,1a5.683,5.683,0,0,0,2.507,2.971,3.113,3.113,0,0,0,2.77-.12,5.808,5.808,0,0,0,1.5-1.036,3.4,3.4,0,0,0,.887-1.176,4.185,4.185,0,0,0,.17-1.759,7.925,7.925,0,0,0-.773-2.078,5.3,5.3,0,0,0-.625-1.061l-.259.1-1.849.943-1.191.518-1.519.767c-.433.179-.983.447-1.685.753Zm18.272,25.34a11.553,11.553,0,0,0-.169-2.223,7.142,7.142,0,0,0-2.706-4.815,5.692,5.692,0,0,0-4.449-.935,6.338,6.338,0,0,0-2.407,1.111,5.452,5.452,0,0,0-1.759,2.134,16.514,16.514,0,0,0-1.011,4.247,13.637,13.637,0,0,1-.912,3.769,3.01,3.01,0,0,1-1.9,1.456,3.144,3.144,0,0,1-1.839-.284,3.285,3.285,0,0,1-1.45-1.371,5.665,5.665,0,0,1-.738-1.759,4.726,4.726,0,0,1-.015-1.774,3.632,3.632,0,0,1,.473-1.519,6.2,6.2,0,0,1,1.052-1.291,20.584,20.584,0,0,1,1.889-1.351l-.3-1.406-.588.11c-.268.055-.723.154-1.4.294-1.261.3-1.949.453-2.083.458l-.164.05c-.139.065-.239.124-.254.195a3.377,3.377,0,0,0-.195,1.042l-.195,1.949a14.1,14.1,0,0,0,.195,2.621,9.539,9.539,0,0,0,.8,2.6,7.754,7.754,0,0,0,1.286,1.824,10.081,10.081,0,0,0,1.365,1.226,4.332,4.332,0,0,0,1.575.658,7.843,7.843,0,0,0,2.936-.021,6.314,6.314,0,0,0,2.123-.767,6.136,6.136,0,0,0,1.585-1.59,6.685,6.685,0,0,0,.937-2.283,14.227,14.227,0,0,0,.414-2.427,8.993,8.993,0,0,1,1.017-3.993,2.887,2.887,0,0,1,1.73-1.241,2.555,2.555,0,0,1,2.1.5,3.613,3.613,0,0,1,1.276,2.234,3.72,3.72,0,0,1-.728,2.99,8.221,8.221,0,0,1-2.457,1.869v.179l.16,1.127.065.145a3.092,3.092,0,0,0,.588-.035,22.529,22.529,0,0,0,2.437-.663,16.267,16.267,0,0,0,1.519-.589,19.6,19.6,0,0,0,.194-2.446Zm-19.2,12.645c.095,1.057.12,1.864.12,2.4l-.085,2.762c-.149,1.241-.224,1.934-.234,2.078-.039.2-.07.339-.07.389s0,.249.03.6v.289c.239.025.408.055.523.055.214,0,.489-.029.777-.055a9.216,9.216,0,0,0,.145-.962,17.478,17.478,0,0,1,.314-1.734,3.316,3.316,0,0,1,.349-.03h.6l3.127.045,2.068.07,4.127.05c.937.02,2.288.054,4.052.125a8.694,8.694,0,0,1,1.072-.025,5,5,0,0,1,1.181.1,11.9,11.9,0,0,1,.4,1.33,7.476,7.476,0,0,0,.374,1.43,6.532,6.532,0,0,0,.663.055h.5c0-.2-.025-.7-.055-1.436-.08-1.376-.08-2.343-.08-2.94,0-.139.01-.468.06-1.037l.255-4.44h-1.37a2.471,2.471,0,0,0-.06.558,6.127,6.127,0,0,1-.4,2.068,3.3,3.3,0,0,1-.518.1l-.663.02-1.775.03-.823-.06H324.92c-.06,0-1.1-.065-3.17-.169H320.9l-3.554-.11H315.52a2.689,2.689,0,0,1-1.326-.3,6.247,6.247,0,0,1-.493-1.535c-.11-.489-.189-.812-.249-1.042l-1.137-.015c0,.209.048.648.088,1.33Zm19.02,17.5a30.872,30.872,0,0,1-3.6-2.342,3.731,3.731,0,0,0-.812.742c-.025.139.085.339.314.688a9.724,9.724,0,0,1,1.535,2.472,4.77,4.77,0,0,1-.24,1.966,27.814,27.814,0,0,1-.9,3.025.245.245,0,0,1-.125.179.273.273,0,0,1-.234.045,25.572,25.572,0,0,1-2.859-.668l-5.712-1.465c-2.642-.692-4.525-1.236-5.741-1.63a2.285,2.285,0,0,1-.708-.384,15.525,15.525,0,0,1-.089-2.363,2.24,2.24,0,0,0-.289-1.415l-.13-.02-.357-.089c-.075-.01-.2-.05-.349-.08-.05.184-.139.549-.24,1.137-.274,1.49-.464,2.408-.524,2.712-.513,1.889-.887,3.2-1.166,3.9a25.142,25.142,0,0,0-.823,2.612,4.351,4.351,0,0,1-.135.554,3.856,3.856,0,0,0,.383.149c.075.015.3.05.663.079a5.261,5.261,0,0,0,.464-.727,6.385,6.385,0,0,0,.524-1.052,5.719,5.719,0,0,1,.447-.833,4.24,4.24,0,0,1,1.615.23l1.966.528,4.78,1.241,4.411,1.186,2.055.549a5.152,5.152,0,0,1,.932.319,9.737,9.737,0,0,1-.234,1.072,28.681,28.681,0,0,1-.927,3.145.862.862,0,0,1-.364.369,7.781,7.781,0,0,1-1.38.249,9.316,9.316,0,0,0-1.914.428,5.349,5.349,0,0,0-.07,1.121,4.41,4.41,0,0,0,.693.259l.763.209,1.321.369q2.138.524,3.141.793c.065-.189.1-.339.139-.447l.179-.663a3.928,3.928,0,0,0-.373-.268,2.921,2.921,0,0,1-.608-.6l.11-.937,1.246-4.66.912-3.39.5-1.849.055-.284c.16-.6.348-1.291.564-2.078.314-1.236.513-1.914.563-2.049a7.091,7.091,0,0,1,1.146-.383,1.12,1.12,0,0,0,.3-.085l.249-.927c-.185-.113-.549-.327-1.062-.642Zm-8.5,26.386c-.06-.05-.155-.1-.189-.135a1.262,1.262,0,0,0-.234-.079c-.617.625-.952.942-1.052,1.017a2.027,2.027,0,0,1-.588.29c-.957.065-1.5.11-1.6.11l-2.706-.045-5.567.04a5.9,5.9,0,0,0-.927.054,3.752,3.752,0,0,1-2.447-.363l-.3-.185c-.089-.06-.369-.234-.858-.543-.514-.294-1.39-.907-2.737-1.759-.089-.06-.357-.23-.752-.5.029-.109.05-.239.079-.378l1.072-2.731c-.179-.125-.309-.214-.408-.274a2.8,2.8,0,0,0-.414-.24l-.593.893a6.391,6.391,0,0,0-.558,1.027,2.418,2.418,0,0,1-.329.625L301.13,357l-.942,1.476-.658.937-1.027,1.321-1.027,1.49a3.2,3.2,0,0,0,.364.249,1.5,1.5,0,0,0,.3.224.294.294,0,0,0,.324.054,5.62,5.62,0,0,0,1.117-1.256c.357-.384.563-.643.688-.753a.95.95,0,0,1,.234-.044l3.379,2.129a5.735,5.735,0,0,1,.667.483l.357.22,1.121.752.4.268a1.628,1.628,0,0,1,.319.5c.314.6.832,1.889,1.57,3.808l1.436,3.369a10.613,10.613,0,0,1,1.121,2.981,4.736,4.736,0,0,1-.5,1.809l-.05.2.967.632a2.4,2.4,0,0,1,.214-.384c.268-.474.454-.852.608-1.172l.135-.219.4-.638a1.32,1.32,0,0,1,.249-.284l1.876-2.6a8.048,8.048,0,0,0-1.017-.536c-.079.079-.195.2-.334.357a3.9,3.9,0,0,1-.424.447c-.239.329-.349.5-.414.528a1.1,1.1,0,0,1-.339.219,1.387,1.387,0,0,1-.279-.1,2,2,0,0,1-.4-.6l-1.241-2.4-.05-.12c-.625-1.416-1.067-2.542-1.361-3.379l-1.027-2.571a6.239,6.239,0,0,1,.937-.04h.625c.149-.01.324-.01.5-.01.1,0,.234,0,.324.01,1,.04,1.556.054,1.7.04.528,0,1.072.015,1.64.015a23,23,0,0,1,4.087.05l.17.145v.11c-.195.419-.329.715-.447.972l-.259.638a3.286,3.286,0,0,0-.274.832l.648.447a1.592,1.592,0,0,0,.309.1l.07-.1a1.535,1.535,0,0,0,.095-.214,19.213,19.213,0,0,1,1.191-2.134c.433-.649,1-1.48,1.794-2.517a12.751,12.751,0,0,1,.8-1l.07-.16a3.93,3.93,0,0,1,.329-.414l.11-.114a7.854,7.854,0,0,0,.962-1.7A3.476,3.476,0,0,1,322.925,359.1Z" transform="translate(-135.168 -212.491)" fill="#fff" fill-rule="evenodd"/>
          </g>
        </g>
      </g>
      <g id="Group_344" data-name="Group 344" transform="translate(219.58 71)">
        <path id="Path_482" data-name="Path 482" d="M1960.35,399.3l-.345.346q-3.426-.206-10.656-.206-7.4,0-10.656.206l-.313-.309v-2.354l.347-.346a37.61,37.61,0,0,0,4.048-.346,1.512,1.512,0,0,0,1.176-1.281,77.746,77.746,0,0,0,.449-10.724V360.9l-7.715,15.81q-.654,1.316-4.5,9.687l-6.333,13.838h-2.316q-1.8-4.289-4.88-10.829l-4.844-10.274-9.063-18.858v24.013a77.822,77.822,0,0,0,.448,10.724,1.51,1.51,0,0,0,1.176,1.281,37.617,37.617,0,0,0,4.047.346l.348.346v2.354l-.348.309q-3.977-.206-7.4-.206-3.98,0-7.992.206l-.348-.309v-2.354l.348-.346a37.6,37.6,0,0,0,4.047-.346,1.513,1.513,0,0,0,1.176-1.281,77.828,77.828,0,0,0,.449-10.724v-18.3a77.885,77.885,0,0,0-.449-10.726,1.513,1.513,0,0,0-1.176-1.281,38.808,38.808,0,0,0-4.047-.346l-.348-.346v-2.352l.348-.311q3.6.206,9.1.208,4.219,0,7.368-.208,1.142,2.628,3.251,7.4l2.214,4.773,11,23.008,5.294-10.724,8.267-17.68q1.455-3.149,2.837-6.782,3.911.206,5.26.208,6.78,0,10.379-.208l.345.311v2.387l-.345.311a38.833,38.833,0,0,0-4.048.346,1.51,1.51,0,0,0-1.176,1.281,77.777,77.777,0,0,0-.45,10.726v18.3a77.72,77.72,0,0,0,.45,10.724,1.51,1.51,0,0,0,1.176,1.281,37.622,37.622,0,0,0,4.048.346l.345.346Z" transform="translate(-1894.684 -347.887)" fill="#5c2868"/>
        <path id="Path_483" data-name="Path 483" d="M1959.725,372.305q0,.588-.036,1.764l-.38.485A47.538,47.538,0,0,1,1947.2,375.8q-1.352,0-4.084.052T1939,375.9a13.068,13.068,0,0,0,3.148,8.406,10.1,10.1,0,0,0,8.027,3.563,18.3,18.3,0,0,0,7.889-2.281l.83,1-1.523,3.425a20.029,20.029,0,0,1-10.966,3.217q-7.784,0-12.092-4.393t-4.306-12.525q0-9.654,4.6-13.216,6.362-4.914,12.074-4.915,6.193,0,9.585,3.565Q1959.724,365.42,1959.725,372.305Zm-9.031-.9q0-9.342-5.811-9.342-6.126,0-6.125,9.271v.762a54.221,54.221,0,0,0,7.127.311,32.9,32.9,0,0,0,4.775-.311C1950.682,371.774,1950.695,371.543,1950.695,371.406Z" transform="translate(-1858.629 -340.163)" fill="#5c2868"/>
        <path id="Path_484" data-name="Path 484" d="M1968.183,393.246q-.243.276-1.488,1.453-2.04,1.94-3.493,3.528a10.968,10.968,0,0,1-3.426.554q-4.81,0-7.024-2.8a6.583,6.583,0,0,1-1.245-2.8,27.086,27.086,0,0,1-.311-4.981l.1-8.269v-8.649h-.934l-1.835.069h-1.417l-.382-.311v-.9l.277-.519q.621-.415,1.938-1.245a23.087,23.087,0,0,0,2.353-1.627v-4.7q0-2.94-.277-6.228,2.595-.831,4.2-1.471t4.551-2.093l.9.693q-.415,4.289-.588,7.681l-.311,5.985h1.142q3.771,0,6.5-.242l.382.38-.485,4.048-.345.346h-7.2v11.728q0,5.641.137,6.644a3.524,3.524,0,0,0,1.229,2.352,4.254,4.254,0,0,0,2.855.9,9.933,9.933,0,0,0,3.423-.762Z" transform="translate(-1841.555 -346.227)" fill="#5c2868"/>
        <path id="Path_485" data-name="Path 485" d="M1990.026,391.576l-.38.38q-2.907-.173-6.677-.172-2.943,0-5.64.172l-.311-.38.311-4.636-6.713,5.121a4.527,4.527,0,0,1-2.284.725,11.9,11.9,0,0,1-1.384.071,7.476,7.476,0,0,1-5.9-2.318,9.305,9.305,0,0,1-2.059-6.4q0-5.4,3.427-7.647,3.7-2.455,14.911-4.428,0-5.5-2.906-7.37a7.6,7.6,0,0,0-4.222-1.142,7.229,7.229,0,0,0-4.256,1.107l-1.315,3.217-.448.243-1.764-.416-.242-.483.172-4.082q5.707-4.222,8.58-4.775a16.6,16.6,0,0,1,3.149-.243q6.816,0,9.721,3.563,2.113,2.595,2.112,7.958,0,1.315-.105,4.221-.173,4.844-.171,6.47,0,5.223.171,6.66c.117.956.386,1.562.814,1.815a7.856,7.856,0,0,0,3.061.451l.346.38Zm-12.7-8.061V375q-5.711,1.246-7.7,2.682a5.042,5.042,0,0,0-1.989,4.377q0,4.7,4.116,4.7A6.339,6.339,0,0,0,1977.329,383.515Z" transform="translate(-1829.043 -340.232)" fill="#5c2868"/>
        <path id="Path_487" data-name="Path 487" d="M2050.042,391.715l-.345.346q-5.189-.173-6.539-.172-1.143,0-3.391.087t-3.357.085l-.276-.275q.275-2.837.276-5.4a79.09,79.09,0,0,0-6.3,5.741,13.256,13.256,0,0,1-4.81.867,10.307,10.307,0,0,1-7.367-2.544q-2.7-2.543-2.7-7.317,0-.588.069-2.492c.046-1.267.071-2.492.071-3.668v-4.427q0-6.85-.52-7.958a1.831,1.831,0,0,0-1.489-.865c-.275-.046-1.292-.1-3.043-.174l-.346-.346v-1.938l.346-.38a57.953,57.953,0,0,0,13.389-2.871l.76.451q-.449,5.741-.448,10.621v6.745a43.507,43.507,0,0,0,.311,6.47,4.961,4.961,0,0,0,1.643,3.148,5.289,5.289,0,0,0,3.478,1.073,7.112,7.112,0,0,0,4.741-1.73,5.552,5.552,0,0,0,2.041-3.945c.044-1.13.069-1.833.069-2.11v-6.194q0-6.781-.52-7.958a1.729,1.729,0,0,0-1.453-.865q-.415-.07-3.045-.174l-.38-.346v-1.938l.38-.38a58.458,58.458,0,0,0,13.39-2.871l.727.451q-.451,5.189-.451,10.621v10.864q0,7.3.416,8.269a1.027,1.027,0,0,0,.691.622,21.16,21.16,0,0,0,3.6.416l.38.346Z" transform="translate(-1759.996 -340.337)" fill="#5c2868"/>
        <path id="Path_488" data-name="Path 488" d="M2057.294,358.468l-.242,6.157c-.024,1.017-.069,2.168-.14,3.462l-1.452.449a5.172,5.172,0,0,0-4.5-2.352,5.3,5.3,0,0,0-4.29,2.075,5.882,5.882,0,0,0-1.037,3.771v8.1q0,2.525.243,7.022a1.894,1.894,0,0,0,.725,1.661q.658.382,4.809.519l.345.311v2.11l-.345.346q-5.086-.206-10.1-.206-6.193,0-9.443.241l-.347-.344v-2.112l.347-.346a12.637,12.637,0,0,0,4.116-.519q.691-.312.762-1.661.239-4.5.24-9.653v-4.947q0-6.92-.519-7.958a1.826,1.826,0,0,0-1.485-.865c-.279-.046-1.281-.1-3.011-.174l-.347-.346v-1.938l.347-.38a59.478,59.478,0,0,0,13.113-2.871l.762.451-.071,6.78q2.146-2.492,5.189-5.812a5.32,5.32,0,0,1,3.876-1.384A6.437,6.437,0,0,1,2057.294,358.468Z" transform="translate(-1738.012 -340.337)" fill="#5c2868"/>
        <path id="Path_489" data-name="Path 489" d="M2070.938,358.468l-.243,6.157c-.022,1.017-.069,2.168-.137,3.462l-1.452.449a5.177,5.177,0,0,0-4.5-2.352,5.3,5.3,0,0,0-4.29,2.075,5.87,5.87,0,0,0-1.039,3.771v8.1q0,2.525.242,7.022a1.9,1.9,0,0,0,.727,1.661q.656.382,4.808.519l.347.311v2.11l-.347.346q-5.083-.206-10.1-.206-6.193,0-9.445.241l-.346-.344v-2.112l.346-.346a12.642,12.642,0,0,0,4.118-.519q.691-.312.76-1.661.243-4.5.243-9.653v-4.947q0-6.92-.52-7.958a1.824,1.824,0,0,0-1.487-.865q-.415-.07-3.011-.174l-.345-.346v-1.938l.345-.38a59.462,59.462,0,0,0,13.113-2.871l.761.451-.068,6.78q2.143-2.492,5.188-5.812a5.318,5.318,0,0,1,3.876-1.384A6.432,6.432,0,0,1,2070.938,358.468Z" transform="translate(-1724.082 -340.337)" fill="#5c2868"/>
        <path id="Path_490" data-name="Path 490" d="M2078.563,400.262l-.345.344q-3.289-.24-9.479-.241t-9.447.241l-.345-.344V398.15l.345-.346a12.649,12.649,0,0,0,4.118-.519q.691-.312.76-1.661.242-4.5.244-9.653v-4.947q0-6.711-.519-7.958-.279-.691-1.49-.865-.413-.07-3.009-.174l-.345-.346v-1.938l.345-.38a57.425,57.425,0,0,0,13.389-2.871l.726.451q-.449,6.3-.449,10.621V388.6q0,2.525.241,7.022.069,1.349.761,1.661a12.647,12.647,0,0,0,4.118.519l.38.346Zm-4.775-45.152a5.2,5.2,0,0,1-1.556,3.789,5.265,5.265,0,0,1-7.509,0,5.381,5.381,0,0,1,3.773-9.186,5.106,5.106,0,0,1,3.718,1.558A5.191,5.191,0,0,1,2073.787,355.11Z" transform="translate(-1710.015 -348.814)" fill="#5c2868"/>
        <path id="Path_491" data-name="Path 491" d="M2097.844,387.356l-1.522,3.423a19.916,19.916,0,0,1-9.273,2.457q-7.715,0-11.8-4.427t-4.082-12.145q0-7.126,3.149-10.829a17.962,17.962,0,0,1,3.288-2.732,45.679,45.679,0,0,1,6.66-4.221,14.293,14.293,0,0,1,5.138-.693,18.634,18.634,0,0,1,7.784,1.419l.345.622q-.033.452-.483,3.219l-.382,2.352q-.1.588-.311,4.636l-.346.346h-2.075l-.348-.346a31.983,31.983,0,0,0-.483-4.29q-1.522-2.7-5.848-2.7-7.333,0-7.333,9.514,0,6.92,2.94,10.9a9.885,9.885,0,0,0,8.477,4.118,11.737,11.737,0,0,0,5.846-1.419Z" transform="translate(-1697.536 -340.163)" fill="#5c2868"/>
        <path id="Path_533" data-name="Path 533" d="M2114.38,405.437l-2.466,5.545a32.263,32.263,0,0,1-15.021,3.98q-12.5,0-19.11-7.172t-6.613-19.673q0-11.544,5.1-17.542a29.1,29.1,0,0,1,5.325-4.425q8.068-5.72,10.788-6.838a23.152,23.152,0,0,1,8.323-1.123,30.185,30.185,0,0,1,12.609,2.3l.56,1.008q-.053.732-.782,5.214l-.619,3.81q-.168.952-.5,7.509l-.56.56h-3.361l-.563-.56a51.828,51.828,0,0,0-.782-6.949q-2.465-4.37-9.473-4.37-11.878,0-11.879,15.411,0,11.21,4.763,17.654,4.875,6.673,13.732,6.671a19.011,19.011,0,0,0,9.47-2.3Z" transform="translate(-1866.205 -360.229)" fill="#5c2868"/>
        <path id="Path_492" data-name="Path 492" d="M2125.993,391.715l-.346.346q-5.189-.173-6.539-.172-1.143,0-3.391.087t-3.356.085l-.277-.275q.279-2.837.277-5.4a79.4,79.4,0,0,0-6.3,5.741,13.259,13.259,0,0,1-4.81.867,10.308,10.308,0,0,1-7.368-2.544q-2.7-2.543-2.7-7.317,0-.588.071-2.492c.044-1.267.069-2.492.069-3.668v-4.427q0-6.85-.519-7.958a1.829,1.829,0,0,0-1.487-.865q-.416-.07-3.045-.174l-.346-.346v-1.938l.346-.38a57.961,57.961,0,0,0,13.389-2.871l.761.451q-.451,5.741-.451,10.621v6.745a43.507,43.507,0,0,0,.311,6.47,4.962,4.962,0,0,0,1.643,3.148,5.294,5.294,0,0,0,3.478,1.073,7.114,7.114,0,0,0,4.741-1.73,5.559,5.559,0,0,0,2.041-3.945c.044-1.13.068-1.833.068-2.11v-6.194q0-6.781-.52-7.958a1.726,1.726,0,0,0-1.453-.865q-.415-.07-3.045-.174l-.379-.346v-1.938l.379-.38a58.433,58.433,0,0,0,13.39-2.871l.727.451q-.448,5.189-.45,10.621v10.864q0,7.3.417,8.269a1.024,1.024,0,0,0,.69.622,21.161,21.161,0,0,0,3.6.416l.38.346Z" transform="translate(-1682.471 -340.337)" fill="#5c2868"/>
        <path id="Path_493" data-name="Path 493" d="M2127.221,400.716l-.346.344q-3.289-.239-9.481-.241t-9.445.241l-.345-.344V398.6l.345-.346a12.644,12.644,0,0,0,4.119-.519q.691-.312.76-1.661.242-4.5.242-15.742V368.746q0-7.266-.242-11.763a1.9,1.9,0,0,0-.76-1.677,12.034,12.034,0,0,0-4.013-.5l-.348-.38v-1.9l.348-.38a67.941,67.941,0,0,0,13.387-2.871l.728.416q0,.934-.1,3.423-.345,8.272-.347,18.3v8.926q0,11.245.242,15.742.07,1.349.761,1.661a12.628,12.628,0,0,0,4.119.519l.38.346Z" transform="translate(-1660.346 -349.268)" fill="#5c2868"/>
        <path id="Path_494" data-name="Path 494" d="M2150.691,391.576l-.38.38q-2.906-.173-6.676-.172-2.943,0-5.64.172l-.311-.38.311-4.636-6.713,5.121a4.527,4.527,0,0,1-2.283.725,11.907,11.907,0,0,1-1.384.071,7.478,7.478,0,0,1-5.9-2.318,9.309,9.309,0,0,1-2.059-6.4q0-5.4,3.427-7.647,3.7-2.455,14.911-4.428,0-5.5-2.906-7.37a7.6,7.6,0,0,0-4.221-1.142,7.225,7.225,0,0,0-4.255,1.107l-1.316,3.217-.449.243-1.764-.416-.243-.483.173-4.082q5.706-4.222,8.579-4.775a16.6,16.6,0,0,1,3.149-.243q6.816,0,9.722,3.563,2.111,2.595,2.111,7.958,0,1.315-.1,4.221-.173,4.844-.172,6.47,0,5.223.172,6.66c.117.956.385,1.562.815,1.815a7.852,7.852,0,0,0,3.061.451l.345.38Zm-12.7-8.061V375q-5.71,1.246-7.7,2.682a5.042,5.042,0,0,0-1.989,4.377q0,4.7,4.116,4.7A6.338,6.338,0,0,0,2137.995,383.515Z" transform="translate(-1648.042 -340.232)" fill="#5c2868"/>
        <path id="Path_495" data-name="Path 495" d="M2162.45,358.468l-.24,6.157c-.024,1.017-.071,2.168-.14,3.462l-1.453.449a5.174,5.174,0,0,0-4.5-2.352,5.3,5.3,0,0,0-4.29,2.075,5.883,5.883,0,0,0-1.039,3.771v8.1q0,2.525.243,7.022a1.9,1.9,0,0,0,.727,1.661q.658.382,4.809.519l.345.311v2.11l-.345.346q-5.086-.206-10.1-.206-6.192,0-9.445.241l-.346-.344v-2.112l.346-.346a12.644,12.644,0,0,0,4.118-.519q.691-.312.76-1.661.243-4.5.243-9.653v-4.947q0-6.92-.52-7.958a1.826,1.826,0,0,0-1.488-.865q-.416-.07-3.009-.174l-.347-.346v-1.938l.347-.38a59.453,59.453,0,0,0,13.111-2.871l.762.451-.069,6.78q2.146-2.492,5.189-5.812a5.318,5.318,0,0,1,3.876-1.384A6.422,6.422,0,0,1,2162.45,358.468Z" transform="translate(-1630.67 -340.337)" fill="#5c2868"/>
        <rect id="Rectangle_342" data-name="Rectangle 342" width="28" height="5" transform="translate(168.42 32)" fill="#5c2868"/>
      </g>
      <g id="Group_345" data-name="Group 345" transform="translate(219.58 157.193)">
        <path id="Path_496" data-name="Path 496" d="M1924.776,433.684l-.184.2q-4.542-.124-5.483-.123-3.766,0-7,.123l-.184-.2v-1.289l.2-.226,1.781-.1q1.124-.061,1.125-.8a7.556,7.556,0,0,0-.572-1.923l-1.658-4.316q-2.823-.043-5.77-.041-1.6,0-4.747.041l-.9,2.5a15.7,15.7,0,0,0-1.022,3.559q0,.78.961.921.533.082,2.087.162l.206.206v1.31l-.206.2q-3.784-.124-4.869-.123-.84,0-4.154.123l-.2-.184v-1.33l.225-.206q2.106-.122,2.588-.838t3.611-8.531l5.339-13.361q.593-1.554,1.8-4.686h2.9l10.845,25.515q.632,1.452,1.146,1.637a5.978,5.978,0,0,0,1.943.245l.184.225ZM1911.8,422.676l-4.379-10.722-4.193,10.722q1.676.061,4.357.061Q1910.188,422.737,1911.8,422.676Z" transform="translate(-1894.188 -403.811)" fill="#5c2868"/>
        <path id="Path_497" data-name="Path 497" d="M1937.938,429.688l-.9,2.026a11.793,11.793,0,0,1-5.484,1.452q-4.562,0-6.977-2.618a10.187,10.187,0,0,1-2.414-7.181q0-4.216,1.862-6.4a10.657,10.657,0,0,1,1.943-1.617,27.232,27.232,0,0,1,3.939-2.5,8.453,8.453,0,0,1,3.039-.41,11.022,11.022,0,0,1,4.6.84l.2.368q-.021.267-.287,1.9l-.225,1.391q-.061.348-.184,2.743l-.2.2h-1.229l-.2-.2a18.876,18.876,0,0,0-.286-2.537q-.9-1.6-3.458-1.6-4.338,0-4.338,5.627a10.63,10.63,0,0,0,1.74,6.445,5.846,5.846,0,0,0,5.012,2.435,6.941,6.941,0,0,0,3.458-.84Z" transform="translate(-1888.732 -402.312)" fill="#5c2868"/>
        <path id="Path_498" data-name="Path 498" d="M1949.659,430.744c-.1.11-.388.4-.88.86q-1.208,1.145-2.066,2.086a6.484,6.484,0,0,1-2.027.326,4.971,4.971,0,0,1-4.152-1.656,3.885,3.885,0,0,1-.736-1.657,16.017,16.017,0,0,1-.185-2.946l.062-4.891v-5.115h-.552l-1.085.041h-.839l-.225-.183v-.532l.163-.307q.369-.245,1.146-.736a13.5,13.5,0,0,0,1.392-.962v-2.783q0-1.739-.164-3.683,1.535-.491,2.486-.87t2.69-1.237l.533.409q-.248,2.538-.348,4.542l-.186,3.54h.675q2.23,0,3.847-.143l.226.226-.287,2.394-.2.2h-4.257v6.936q0,3.336.083,3.928a2.079,2.079,0,0,0,.726,1.392,2.519,2.519,0,0,0,1.688.532,5.9,5.9,0,0,0,2.026-.451Z" transform="translate(-1885.844 -403.471)" fill="#5c2868"/>
        <path id="Path_499" data-name="Path 499" d="M1960.457,433.857l-.2.2q-1.945-.143-5.607-.143t-5.585.143l-.2-.2V432.61l.2-.2a7.513,7.513,0,0,0,2.435-.307c.273-.124.422-.45.45-.982q.143-2.66.143-5.709v-2.925a19.081,19.081,0,0,0-.307-4.707c-.109-.272-.4-.443-.879-.51q-.246-.041-1.78-.1l-.205-.2v-1.146l.205-.226a34,34,0,0,0,7.917-1.7l.43.265q-.265,3.723-.266,6.281v6.527q0,1.493.143,4.154c.028.532.178.858.451.982a7.5,7.5,0,0,0,2.435.307l.225.2Zm-2.824-26.7a3.073,3.073,0,0,1-.921,2.241,3.115,3.115,0,0,1-4.44,0,3.182,3.182,0,0,1,2.23-5.433,3.028,3.028,0,0,1,2.2.92A3.073,3.073,0,0,1,1957.633,407.157Z" transform="translate(-1883.527 -403.965)" fill="#5c2868"/>
        <path id="Path_500" data-name="Path 500" d="M1982.331,414.32l-.2.225a4.423,4.423,0,0,0-1.637.307,2.46,2.46,0,0,0-.7.9q-.409.735-1.534,3.315l-3.908,9.064q-.2.489-1.76,4.4h-3.58q-1.145-3.232-2.5-6.609-2.148-5.381-3.662-9.247-.675-1.719-1.453-2.007a3.9,3.9,0,0,0-1.207-.183l-.225-.226v-1.187l.225-.2q1.882.061,5.463.061,3.151,0,4.932-.061l.225.2v1.207l-.225.225a9.087,9.087,0,0,0-1.965.185.555.555,0,0,0-.45.552,62.8,62.8,0,0,0,2.516,7.2q1.33,3.538,1.74,4.439,1.309-3.069,2.5-6.014a28.717,28.717,0,0,0,1.943-5.627.543.543,0,0,0-.419-.563,10.261,10.261,0,0,0-2.016-.194l-.224-.206v-1.207l.224-.2q1.576.061,3.725.061,2.311,0,3.969-.061l.2.2Z" transform="translate(-1881.36 -402.229)" fill="#5c2868"/>
        <path id="Path_501" data-name="Path 501" d="M1991.617,433.857l-.2.2q-1.945-.143-5.606-.143t-5.586.143l-.2-.2V432.61l.2-.2a7.5,7.5,0,0,0,2.434-.307c.273-.124.423-.45.451-.982q.143-2.66.143-5.709v-2.925a19.144,19.144,0,0,0-.307-4.707c-.109-.272-.4-.443-.88-.51q-.246-.041-1.781-.1l-.2-.2v-1.146l.2-.226a34.015,34.015,0,0,0,7.918-1.7l.43.265q-.267,3.723-.266,6.281v6.527q0,1.493.143,4.154c.027.532.177.858.451.982a7.5,7.5,0,0,0,2.434.307l.224.2Zm-2.824-26.7a3.072,3.072,0,0,1-.92,2.241,3.115,3.115,0,0,1-4.44,0,3.181,3.181,0,0,1,2.23-5.433,3.028,3.028,0,0,1,2.2.92A3.072,3.072,0,0,1,1988.793,407.157Z" transform="translate(-1877.45 -403.965)" fill="#5c2868"/>
        <path id="Path_502" data-name="Path 502" d="M2004.173,430.744c-.1.11-.388.4-.879.86q-1.208,1.145-2.066,2.086a6.481,6.481,0,0,1-2.026.326,4.972,4.972,0,0,1-4.154-1.656,3.893,3.893,0,0,1-.737-1.657,16.056,16.056,0,0,1-.185-2.946l.062-4.891v-5.115h-.552l-1.085.041h-.839l-.225-.183v-.532l.164-.307q.368-.245,1.146-.736a13.644,13.644,0,0,0,1.391-.962v-2.783q0-1.739-.164-3.683,1.534-.491,2.485-.87t2.691-1.237l.532.409q-.246,2.538-.348,4.542l-.184,3.54h.674q2.232,0,3.847-.143l.226.226-.287,2.394-.2.2H1999.2v6.936q0,3.336.081,3.928a2.083,2.083,0,0,0,.727,1.392,2.52,2.52,0,0,0,1.687.532,5.9,5.9,0,0,0,2.026-.451Z" transform="translate(-1875.213 -403.471)" fill="#5c2868"/>
        <path id="Path_503" data-name="Path 503" d="M2021.544,420.787q0,.348-.02,1.044l-.225.286a28.119,28.119,0,0,1-7.16.736q-.8,0-2.415.032t-2.434.03a7.71,7.71,0,0,0,1.861,4.971A5.973,5.973,0,0,0,2015.9,430a10.807,10.807,0,0,0,4.665-1.35l.491.593-.9,2.026a11.833,11.833,0,0,1-6.485,1.9,9.556,9.556,0,0,1-7.151-2.6q-2.547-2.6-2.548-7.407,0-5.707,2.722-7.815,3.762-2.906,7.14-2.906a7.445,7.445,0,0,1,5.667,2.108A8.751,8.751,0,0,1,2021.544,420.787Zm-5.339-.532q0-5.525-3.437-5.525-3.623,0-3.622,5.484v.449a32.009,32.009,0,0,0,4.215.185,19.445,19.445,0,0,0,2.824-.185C2016.2,420.474,2016.2,420.338,2016.2,420.256Z" transform="translate(-1872.779 -402.312)" fill="#5c2868"/>
        <path id="Path_504" data-name="Path 504" d="M2036.772,425.871a6.5,6.5,0,0,1-2.487,5.309,9.989,9.989,0,0,1-6.5,2.015,17.316,17.316,0,0,1-6.1-1.227l-.225-.306q.182-1.884.225-2.927l.1-2.578.2-.226h1.207l.246.226a21.235,21.235,0,0,0,.184,2.7,5.511,5.511,0,0,0,4.563,2.231,4.446,4.446,0,0,0,2.885-.881,2.875,2.875,0,0,0,1.085-2.353,2.4,2.4,0,0,0-1.638-2.476,21.645,21.645,0,0,0-2.762-.7,11.723,11.723,0,0,1-4.522-1.637,4.949,4.949,0,0,1-1.739-4.112,5.908,5.908,0,0,1,2.149-4.767,9.2,9.2,0,0,1,6.1-1.882,11.937,11.937,0,0,1,5.442,1.1l.185.327a32.5,32.5,0,0,0-.349,4.726l-.225.2h-1.166l-.226-.2a15.268,15.268,0,0,0-.286-2.394,4.481,4.481,0,0,0-3.744-1.637,4.2,4.2,0,0,0-2.618.778,2.444,2.444,0,0,0-1.024,2.046,2.236,2.236,0,0,0,1.74,2.271q.776.247,3.027.7a11.7,11.7,0,0,1,4.543,1.556A4.947,4.947,0,0,1,2036.772,425.871Z" transform="translate(-1869.366 -402.342)" fill="#5c2868"/>
        <path id="Path_505" data-name="Path 505" d="M2073.344,433.67l-.2.2c-.1,0-.355-.007-.778-.02q-2.8-.1-3.5-.1-1.043,0-3.315.123a5.7,5.7,0,0,0-.778-1.636l-5.074-8.472-2.271-3.458a5.781,5.781,0,0,0-1.207-1.248l.225-.7c.314.014.546.02.7.02a6.56,6.56,0,0,0,3.152-.633,5.466,5.466,0,0,0,1.923-2.005,6.4,6.4,0,0,0,.88-3.418q0-3.456-2.578-4.665a8.781,8.781,0,0,0-3.58-.571,11.5,11.5,0,0,0-1.965.163q-.2,2.006-.2,6.834v10.7a45.8,45.8,0,0,0,.267,6.343.892.892,0,0,0,.7.758,22.952,22.952,0,0,0,2.394.2l.2.2v1.372l-.184.2q-2.046-.124-6.3-.123-4.4,0-6.3.123l-.206-.184V432.3l.206-.2a22.865,22.865,0,0,0,2.393-.2.893.893,0,0,0,.7-.758,45.809,45.809,0,0,0,.266-6.343V413.966a45.823,45.823,0,0,0-.266-6.343.892.892,0,0,0-.7-.756,22.709,22.709,0,0,0-2.393-.206l-.206-.2v-1.391l.206-.184q2,.122,6.3.123,2.495,0,4.052-.061,3.088-.124,4.623-.123a15.613,15.613,0,0,1,5.2.635,4.856,4.856,0,0,1,2.988,2.905,6.9,6.9,0,0,1,.368,2.373q0,5.566-6.261,7.9,1.024,1.719,2.169,3.478l3.15,4.849q2.784,4.3,3.7,4.89a2.388,2.388,0,0,0,1.31.306l.2.206Z" transform="translate(-1864.712 -403.798)" fill="#5c2868"/>
        <path id="Path_506" data-name="Path 506" d="M2088.437,420.787q0,.348-.02,1.044l-.226.286a28.107,28.107,0,0,1-7.16.736q-.8,0-2.414.032t-2.435.03a7.714,7.714,0,0,0,1.862,4.971,5.972,5.972,0,0,0,4.745,2.108,10.807,10.807,0,0,0,4.666-1.35l.491.593-.9,2.026a11.838,11.838,0,0,1-6.486,1.9,9.557,9.557,0,0,1-7.151-2.6q-2.548-2.6-2.547-7.407,0-5.707,2.721-7.815,3.765-2.906,7.141-2.906a7.449,7.449,0,0,1,5.667,2.108A8.755,8.755,0,0,1,2088.437,420.787Zm-5.34-.532q0-5.525-3.437-5.525-3.621,0-3.622,5.484v.449a32.027,32.027,0,0,0,4.216.185,19.428,19.428,0,0,0,2.823-.185C2083.09,420.474,2083.1,420.338,2083.1,420.256Z" transform="translate(-1859.733 -402.312)" fill="#5c2868"/>
        <path id="Path_507" data-name="Path 507" d="M2110.3,420.432a13.028,13.028,0,0,1-.9,4.808,9.02,9.02,0,0,1-1.719,2.844,13.983,13.983,0,0,1-1.759,1.473q-1.35,1.084-3.376,2.619a5.461,5.461,0,0,1-3.068.8,10.289,10.289,0,0,1-3.561-.655v7.672a2.329,2.329,0,0,0,.225,1.249.979.979,0,0,0,.553.264q.327.082,2.618.246l.227.2v1.269l-.206.2q-2.763-.163-6.281-.164-2.577,0-5.157.164l-.2-.2V442l.2-.226a5.728,5.728,0,0,0,2.374-.326.733.733,0,0,0,.247-.39,18.77,18.77,0,0,0,.163-2q.062-1.23.082-3.131l.041-3.172V420.862q0-.2-.122-3.028a6.536,6.536,0,0,0-.215-1.709c-.1-.252-.385-.413-.85-.48-.162-.027-.763-.062-1.8-.1l-.2-.2v-1.146l.2-.226a34.322,34.322,0,0,0,7.918-1.7l.449.265q0,.88-.184,3.54,1.371-1.145,3.458-2.844a5.126,5.126,0,0,1,3.089-.758q5.075,0,6.916,3.887A9.446,9.446,0,0,1,2110.3,420.432Zm-5.258,2.517q0-4.46-2.353-6.016a4.679,4.679,0,0,0-2.6-.819,5.132,5.132,0,0,0-4.173,2.067V428.33a5.561,5.561,0,0,0,4.092,1.965q3.335,0,4.461-3.458A12.386,12.386,0,0,0,2105.039,422.949Z" transform="translate(-1856.468 -402.345)" fill="#5c2868"/>
        <path id="Path_508" data-name="Path 508" d="M2129.57,422.164q0,7.244-4.869,9.8a11.468,11.468,0,0,1-5.422,1.248q-4.707,0-7.172-2.72t-2.466-7.8q0-7.018,4.788-9.35a12.335,12.335,0,0,1,5.463-1.146q6.527,0,8.655,4.521A12.766,12.766,0,0,1,2129.57,422.164Zm-5.668,1.678q0-5.094-1.115-7.294a3.617,3.617,0,0,0-3.407-2.2q-4.07,0-4.071,7.346,0,9.43,4.562,9.431,2.843,0,3.622-3.13A17.557,17.557,0,0,0,2123.9,423.842Z" transform="translate(-1852.171 -402.359)" fill="#5c2868"/>
        <path id="Path_509" data-name="Path 509" d="M2143.821,412.534l-.144,3.642c-.014.6-.04,1.281-.082,2.046l-.86.266a3.055,3.055,0,0,0-2.66-1.391,3.133,3.133,0,0,0-2.537,1.227,3.477,3.477,0,0,0-.613,2.23v4.787q0,1.493.143,4.154a1.12,1.12,0,0,0,.429.982,9.91,9.91,0,0,0,2.844.307l.2.183v1.249l-.2.2q-3.008-.124-5.974-.123-3.662,0-5.585.143l-.206-.2V430.99l.206-.2a7.513,7.513,0,0,0,2.434-.307c.272-.124.423-.451.451-.982q.142-2.66.142-5.709v-2.925a18.211,18.211,0,0,0-.306-4.707,1.079,1.079,0,0,0-.879-.51q-.247-.041-1.781-.1l-.2-.2v-1.146l.2-.226a35.238,35.238,0,0,0,7.755-1.7l.45.265-.042,4.01q1.269-1.473,3.069-3.437a3.14,3.14,0,0,1,2.292-.818A3.809,3.809,0,0,1,2143.821,412.534Z" transform="translate(-1848.478 -402.345)" fill="#5c2868"/>
        <path id="Path_510" data-name="Path 510" d="M2154.84,430.744c-.1.11-.388.4-.88.86q-1.208,1.145-2.066,2.086a6.477,6.477,0,0,1-2.025.326,4.974,4.974,0,0,1-4.154-1.656,3.886,3.886,0,0,1-.736-1.657,16,16,0,0,1-.185-2.946l.062-4.891v-5.115h-.552l-1.085.041h-.838l-.225-.183v-.532l.163-.307q.368-.245,1.146-.736a13.742,13.742,0,0,0,1.391-.962v-2.783q0-1.739-.164-3.683,1.534-.491,2.486-.87t2.691-1.237l.532.409q-.245,2.538-.347,4.542l-.184,3.54h.674q2.232,0,3.847-.143l.226.226-.287,2.394-.2.2h-4.255v6.936q0,3.336.081,3.928a2.086,2.086,0,0,0,.726,1.392,2.522,2.522,0,0,0,1.688.532,5.9,5.9,0,0,0,2.025-.451Z" transform="translate(-1845.83 -403.471)" fill="#5c2868"/>
        <path id="Path_511" data-name="Path 511" d="M2165.638,433.857l-.2.2q-1.945-.143-5.607-.143t-5.586.143l-.2-.2V432.61l.2-.2a7.513,7.513,0,0,0,2.435-.307c.273-.124.422-.45.449-.982q.144-2.66.143-5.709v-2.925a19.122,19.122,0,0,0-.306-4.707c-.11-.272-.4-.443-.88-.51q-.245-.041-1.78-.1l-.2-.2v-1.146l.2-.226a34,34,0,0,0,7.917-1.7l.43.265q-.266,3.723-.265,6.281v6.527q0,1.493.143,4.154c.027.532.177.858.45.982a7.515,7.515,0,0,0,2.436.307l.224.2Zm-2.824-26.7a3.072,3.072,0,0,1-.922,2.241,3.114,3.114,0,0,1-4.439,0,3.182,3.182,0,0,1,2.23-5.433,3.029,3.029,0,0,1,2.2.92A3.073,3.073,0,0,1,2162.815,407.157Z" transform="translate(-1843.512 -403.965)" fill="#5c2868"/>
        <path id="Path_512" data-name="Path 512" d="M2189.29,432.217l-.2.225q-2.252-.143-3.806-.143-1.433,0-4.174.143l-.2-.2q.37-4.562.368-7.039v-4.01q0-4.992-3.6-4.992a3.607,3.607,0,0,0-2.946,1.289,3.416,3.416,0,0,0-.9,2.189V423.5a44.176,44.176,0,0,0,.266,6.506q.164.719,2.374.758l.2.2v1.249l-.2.2q-1.74-.124-5.2-.123-3.662,0-5.585.143l-.2-.2V430.99l.2-.2a7.5,7.5,0,0,0,2.434-.307c.272-.124.423-.451.45-.982q.144-2.66.144-5.709v-2.925a18.2,18.2,0,0,0-.307-4.707,1.076,1.076,0,0,0-.88-.51q-.245-.041-1.781-.1l-.2-.2v-1.146l.2-.226a35.217,35.217,0,0,0,7.755-1.7l.45.265-.042,3.437,3.519-2.946a7.778,7.778,0,0,1,2.968-.553,5.94,5.94,0,0,1,4.87,1.965,7.247,7.247,0,0,1,1.31,4.686q0,.348-.083,2.844t-.081,3.56q0,3.09.1,3.939a1.4,1.4,0,0,0,.471,1.074,5.842,5.842,0,0,0,2.128.265l.184.2Z" transform="translate(-1841.282 -402.345)" fill="#5c2868"/>
        <path id="Path_513" data-name="Path 513" d="M2208.733,433.718a8.651,8.651,0,0,1-3.346,7.14,13.636,13.636,0,0,1-8.747,2.66,12.275,12.275,0,0,1-6.7-1.586,4.857,4.857,0,0,1-2.466-4.266,4.045,4.045,0,0,1,.8-2.721q.08-.1,2.167-1.35,1-.6,1.474-.839-2.823-.491-2.824-2.721a4.345,4.345,0,0,1,.819-2.415q.063-.081,1.106-.817.491-.35,1.738-1.249-4.42-1.6-4.419-5.912a6.588,6.588,0,0,1,2.5-5.372,10.2,10.2,0,0,1,6.649-2.036,9.937,9.937,0,0,1,6.281,1.781c.859.041,1.413.055,1.657.041q1-.041,3.028-.1l.247.225-.226,2.107-.225.206h-3.028a7.654,7.654,0,0,1,.266,2.005,6.6,6.6,0,0,1-4.726,6.649,11.9,11.9,0,0,1-4.194.8c-.463,0-1.065-.034-1.8-.1a2.067,2.067,0,0,0-1.29,1.821q0,1.043,1.494,1.187.858.082,2.864.081.635,0,2.21-.061t2.332-.061q4.626,0,5.75,2.045A5.877,5.877,0,0,1,2208.733,433.718Zm-4.686,2.331q0-2.23-1.555-2.8a9.212,9.212,0,0,0-2.619-.264l-3.888-.042q-.654,0-1.8.042-2.8,1.737-2.8,3.989a3.757,3.757,0,0,0,1.657,3.242,7.518,7.518,0,0,0,4.439,1.177,7.4,7.4,0,0,0,4.778-1.442A4.745,4.745,0,0,0,2204.048,436.05Zm-3.723-16.633q0-5.157-3.458-5.155-3.4,0-3.4,4.46,0,5.277,3.54,5.278Q2200.323,424,2200.324,419.416Z" transform="translate(-1836.991 -402.352)" fill="#5c2868"/>
        <path id="Path_514" data-name="Path 514" d="M2237.395,424.365a9.691,9.691,0,0,1-1.922,5.955,10.063,10.063,0,0,1-4.4,3.376,15.694,15.694,0,0,1-5.955,1.022,19.46,19.46,0,0,1-8.429-1.963l-.245-.449a30.021,30.021,0,0,0,.572-6.691l.2-.206h1.309l.184.206v.471a24.636,24.636,0,0,0,.247,3.028,5.888,5.888,0,0,0,2.638,2.25,9.221,9.221,0,0,0,4.134.982q4.05,0,5.6-2.824a6.171,6.171,0,0,0,.8-3.008,3.887,3.887,0,0,0-2.189-3.744,12.362,12.362,0,0,0-3.5-.92q-5.462-.839-7.181-2.108-2.6-1.923-2.6-5.954a8.487,8.487,0,0,1,2.824-6.691q2.986-2.619,8.307-2.618a16.748,16.748,0,0,1,7.734,1.534l.144.491a35.3,35.3,0,0,0-.594,5.851l-.225.2h-1.289l-.205-.2a24.713,24.713,0,0,0-.2-3.192,4.83,4.83,0,0,0-2.209-1.637,9.074,9.074,0,0,0-3.5-.7,6.2,6.2,0,0,0-4.337,1.453,4.584,4.584,0,0,0-1.493,3.54,3.83,3.83,0,0,0,1.7,3.458,16.539,16.539,0,0,0,5.219,1.371q.428.061,2.393.409a11.821,11.821,0,0,1,2.23.594,6.169,6.169,0,0,1,3.11,2.372A7.83,7.83,0,0,1,2237.395,424.365Z" transform="translate(-1831.342 -403.865)" fill="#5c2868"/>
        <path id="Path_515" data-name="Path 515" d="M2258.578,414.32l-.184.184a2.007,2.007,0,0,0-1.841.778q-.266.452-1.452,3.008-2.682,5.831-4.441,10.19l-3.293,8.142a14.8,14.8,0,0,1-3.295,5.381,5.833,5.833,0,0,1-4.051,1.494,6.377,6.377,0,0,1-2.926-.716q.348-1.452.716-4.071l.532-.1a3.346,3.346,0,0,0,2.885,1.514q2.149,0,3.95-4.195l.838-1.963-6.628-17.227a4.5,4.5,0,0,0-1.054-1.851,3.516,3.516,0,0,0-1.893-.38l-.2-.2v-1.227l.224-.2q1.308.061,5.013.061,3.436,0,5.585-.061l.2.2V414.3l-.2.2q-2.332,0-2.332.839a2.6,2.6,0,0,0,.2.9q.329.943,1,2.8l2.987,7.9,1.8-4.318q2.639-6.321,2.638-7.385,0-.737-2.373-.737l-.2-.2v-1.227l.225-.2q1.187.061,4.01.061,1.6,0,3.335-.061l.225.2Z" transform="translate(-1827.483 -402.229)" fill="#5c2868"/>
        <path id="Path_516" data-name="Path 516" d="M2272.172,425.871a6.5,6.5,0,0,1-2.486,5.309,9.99,9.99,0,0,1-6.5,2.015,17.312,17.312,0,0,1-6.1-1.227l-.226-.306q.185-1.884.226-2.927l.1-2.578.206-.226h1.206l.246.226a21.531,21.531,0,0,0,.184,2.7,5.512,5.512,0,0,0,4.563,2.231,4.447,4.447,0,0,0,2.885-.881,2.876,2.876,0,0,0,1.085-2.353,2.4,2.4,0,0,0-1.637-2.476,21.677,21.677,0,0,0-2.761-.7,11.717,11.717,0,0,1-4.522-1.637,4.946,4.946,0,0,1-1.739-4.112,5.912,5.912,0,0,1,2.147-4.767,9.208,9.208,0,0,1,6.1-1.882,11.938,11.938,0,0,1,5.443,1.1l.184.327a32.444,32.444,0,0,0-.348,4.726l-.226.2h-1.167l-.224-.2a15.507,15.507,0,0,0-.286-2.394,4.484,4.484,0,0,0-3.745-1.637,4.2,4.2,0,0,0-2.618.778,2.448,2.448,0,0,0-1.024,2.046,2.237,2.237,0,0,0,1.74,2.271q.778.247,3.028.7a11.707,11.707,0,0,1,4.543,1.556A4.946,4.946,0,0,1,2272.172,425.871Z" transform="translate(-1823.458 -402.342)" fill="#5c2868"/>
        <path id="Path_517" data-name="Path 517" d="M2284.345,430.744c-.1.11-.388.4-.879.86q-1.208,1.145-2.066,2.086a6.483,6.483,0,0,1-2.027.326,4.972,4.972,0,0,1-4.153-1.656,3.889,3.889,0,0,1-.736-1.657,15.949,15.949,0,0,1-.186-2.946l.062-4.891v-5.115h-.552l-1.085.041h-.839l-.225-.183v-.532l.164-.307q.367-.245,1.146-.736a13.594,13.594,0,0,0,1.391-.962v-2.783q0-1.739-.164-3.683,1.534-.491,2.486-.87t2.69-1.237l.533.409q-.245,2.538-.348,4.542l-.185,3.54h.675q2.231,0,3.847-.143l.226.226-.287,2.394-.2.2h-4.257v6.936q0,3.336.082,3.928a2.086,2.086,0,0,0,.727,1.392,2.52,2.52,0,0,0,1.687.532,5.9,5.9,0,0,0,2.025-.451Z" transform="translate(-1820.574 -403.471)" fill="#5c2868"/>
        <path id="Path_518" data-name="Path 518" d="M2301.716,420.787q0,.348-.02,1.044l-.225.286a28.12,28.12,0,0,1-7.16.736q-.8,0-2.416.032t-2.434.03a7.71,7.71,0,0,0,1.862,4.971,5.974,5.974,0,0,0,4.747,2.108,10.809,10.809,0,0,0,4.666-1.35l.491.593-.9,2.026a11.834,11.834,0,0,1-6.487,1.9,9.556,9.556,0,0,1-7.15-2.6q-2.547-2.6-2.548-7.407,0-5.707,2.722-7.815,3.763-2.906,7.14-2.906a7.445,7.445,0,0,1,5.667,2.108A8.756,8.756,0,0,1,2301.716,420.787Zm-5.339-.532q0-5.525-3.437-5.525-3.623,0-3.622,5.484v.449a32,32,0,0,0,4.214.185,19.42,19.42,0,0,0,2.823-.185C2296.369,420.474,2296.376,420.338,2296.376,420.256Z" transform="translate(-1818.139 -402.312)" fill="#5c2868"/>
        <path id="Path_519" data-name="Path 519" d="M2336.234,432.2l-.2.226q-1.187-.124-4.215-.123a35.481,35.481,0,0,0-3.58.123l-.286-.388q.328-5.094.327-7.427v-1.863a27.848,27.848,0,0,0-.184-4.03,3.42,3.42,0,0,0-1.023-1.963,3.067,3.067,0,0,0-2.169-.739,3.843,3.843,0,0,0-2.557.86,2.733,2.733,0,0,0-1.023,2.189v6.1l.083,3.233a5.447,5.447,0,0,0,.224,1.718.8.8,0,0,0,.552.388,16.882,16.882,0,0,0,1.985.266l.224.2V432.2l-.245.226q-2.477-.124-5.013-.123-3.152,0-5.4.123l-.224-.226V430.99l.2-.246c.859-.082,1.453-.157,1.779-.225q.37-.082.532-.614a11.737,11.737,0,0,0,.143-2.271l.042-6.609a10.878,10.878,0,0,0-.348-3.274,2.6,2.6,0,0,0-1.085-1.289,3.382,3.382,0,0,0-1.882-.47,3.707,3.707,0,0,0-2.925,1.227,2.562,2.562,0,0,0-.6.921,7.638,7.638,0,0,0-.093,1.534v4.44q0,1.309.083,3.4a23.026,23.026,0,0,0,.164,2.5.874.874,0,0,0,.686.584,7.462,7.462,0,0,0,1.708.173l.2.2v1.249l-.2.2q-1.738-.124-5.2-.123-3.662,0-5.585.143l-.2-.2V430.99l.2-.2a7.519,7.519,0,0,0,2.435-.307c.272-.124.423-.451.451-.982q.141-2.66.142-5.709v-2.925a18.072,18.072,0,0,0-.308-4.707,1.074,1.074,0,0,0-.879-.51q-.246-.041-1.78-.1l-.206-.2v-1.146l.206-.226a35.222,35.222,0,0,0,7.753-1.7l.451.265-.041,3.254,3.642-2.947a5.757,5.757,0,0,1,2.374-.451,7.267,7.267,0,0,1,3.662.768,5.331,5.331,0,0,1,2.108,2.69l3.723-3.008a5.69,5.69,0,0,1,2.434-.471q3.95,0,5.484,2.864a8.581,8.581,0,0,1,.676,3.887c0,.723-.008,1.263-.02,1.616l-.021.779q-.041.982-.042,1.31v2.659q0,3.09.1,3.939a1.4,1.4,0,0,0,.47,1.073,5.66,5.66,0,0,0,2.087.266l.2.226Z" transform="translate(-1814.868 -402.345)" fill="#5c2868"/>
      </g>
    </g>
  </g>
</svg>
