<svg xmlns="http://www.w3.org/2000/svg" xmlns:xlink="http://www.w3.org/1999/xlink" width="46" height="46" viewBox="0 0 46 46">
  <defs>
    <clipPath id="clip-path">
      <rect id="Rectangle_286" data-name="Rectangle 286" width="24" height="22" transform="translate(-0.036 0)" fill="#02bc77"/>
    </clipPath>
    <clipPath id="clip-activity-stats">
      <rect width="46" height="46"/>
    </clipPath>
  </defs>
  <g id="activity-stats" clip-path="url(#clip-activity-stats)">
    <g id="Group_274" data-name="Group 274" transform="translate(0.036)">
      <rect id="Rectangle_227" data-name="Rectangle 227" width="46" height="46" rx="10" transform="translate(-0.036 0)" fill="#02bc77" opacity="0.17"/>
      <g id="Group_76" data-name="Group 76" transform="translate(11 12)" clip-path="url(#clip-path)">
        <path id="Path_392" data-name="Path 392" d="M16.075,2H11.031a1,1,0,0,0-.892.515l-4.444,8.45a.919.919,0,0,0,.892,1.311h4.424a.937.937,0,0,1,.973,1.086L10.694,19.5c-.129.615.782.916,1.106.365L18.085,9.177a.916.916,0,0,0-.871-1.347H15.644a.913.913,0,0,1-.834-1.4L16.91,3.4A.913.913,0,0,0,16.075,2Z" transform="translate(-0.011 -0.127)" fill="#02bc77"/>
      </g>
    </g>
  </g>
</svg>
