<svg xmlns="http://www.w3.org/2000/svg" xmlns:xlink="http://www.w3.org/1999/xlink" width="32" height="32" viewBox="0 0 32 32">
  <defs>
    <clipPath id="clip-all_users">
      <rect width="32" height="32"/>
    </clipPath>
  </defs>
  <g id="all_users" data-name="all users" clip-path="url(#clip-all_users)">
    <g id="Group_264" data-name="Group 264" transform="translate(394 -2509)">
      <rect id="Rectangle_236" data-name="Rectangle 236" width="32" height="32" rx="4" transform="translate(-394 2509)" fill="#f8f1f9"/>
      <g id="Group_65" data-name="Group 65" transform="translate(-390 2513)">
        <path id="Path_368" data-name="Path 368" d="M3.682,10.111A3.918,3.918,0,1,1,7.6,14.022,3.914,3.914,0,0,1,3.682,10.111Z" fill="#5c2868"/>
        <path id="Path_369" data-name="Path 369" d="M7.6,15.587a10.731,10.731,0,0,0-5.8,1.538c-1.806,1.19-.281,3.155,1.883,3.155h7.835c2.164,0,3.689-1.965,1.883-3.155A10.731,10.731,0,0,0,7.6,15.587Z" fill="#5c2868"/>
        <path id="Path_370" data-name="Path 370" d="M16.38,18.08q-.015-.119-.041-.24a3.132,3.132,0,0,0-1.418-1.917,11.553,11.553,0,0,0-3.457-1.488A11.425,11.425,0,0,1,16.4,13.387a10.73,10.73,0,0,1,5.8,1.538c1.806,1.19.281,3.155-1.883,3.155Z" fill="#5c2868"/>
        <path id="Path_371" data-name="Path 371" d="M13.582,7.843a3.85,3.85,0,1,1,3.85,3.844A3.847,3.847,0,0,1,13.582,7.843Z" fill="#5c2868"/>
      </g>
    </g>
  </g>
</svg>
