<svg xmlns="http://www.w3.org/2000/svg" xmlns:xlink="http://www.w3.org/1999/xlink" width="40" height="40" viewBox="0 0 40 40">
  <defs>
    <clipPath id="clip-Horizontal-scrolling">
      <rect width="40" height="40"/>
    </clipPath>
  </defs>
  <g id="Horizontal-scrolling" clip-path="url(#clip-Horizontal-scrolling)">
    <path id="slide-left-right-icon" d="M13.457,22.194a.794.794,0,0,1-.152-.1c-.632-.5-1.292-1.053-1.877-1.54-.85-.709-1.83-1.528-2.528-2.108a3.569,3.569,0,0,0-1.5-.77,1.578,1.578,0,0,0-.85.035.9.9,0,0,0-.455.475,3.086,3.086,0,0,0-.164,1.386,5.44,5.44,0,0,0,.468,1.717A10.848,10.848,0,0,0,7.63,23.426a.322.322,0,0,1,.057.1l7.378,10.686a.949.949,0,0,1,.164.449,6.878,6.878,0,0,0,.78,2.747,1.2,1.2,0,0,0,1.084.642H28.7a3.439,3.439,0,0,0,1.981-.642,6.412,6.412,0,0,0,1.807-2.153.409.409,0,0,1,.035-.048c.209-.366.49-.841.758-1.284,1.179-1.964,2.212-3.681,2.319-6.12l-.07-3.363a.534.534,0,0,1,0-.141c0-.048,0-.366,0-.793.022-2.224.057-4.971-1.946-5.314H32.3c0,.642-.047,1.284-.082,1.884-.035.555-.07,1.078-.07,1.585a.967.967,0,1,1-1.934,0c0-.51.035-1.1.07-1.717.13-2.1.281-4.493-1.365-4.794H27.632a1.535,1.535,0,0,1-.209-.022c0,.757-.035,1.54-.082,2.3-.035.555-.07,1.078-.07,1.585a.967.967,0,1,1-1.934,0c0-.51.035-1.1.07-1.717.13-2.1.278-4.493-1.365-4.794H22.753a.934.934,0,0,1-.256-.035v3.793a.967.967,0,1,1-1.934,0V5.985a3.406,3.406,0,0,0-1.58-3.254,2.231,2.231,0,0,0-1.014-.247,2.272,2.272,0,0,0-1.014.247c-.875.449-1.551,1.54-1.551,3.3V24a.967.967,0,1,1-1.934,0v-1.81ZM3.886,9.207a.816.816,0,0,0,1.166.029A.847.847,0,0,0,5.08,8.052L2.752,5.577h7a.838.838,0,0,0,0-1.675h-7L5.084,1.415A.847.847,0,0,0,5.055.231.816.816,0,0,0,3.889.26L.23,4.172a.85.85,0,0,0,0,1.155ZM32.4.26A.816.816,0,0,0,31.231.231.847.847,0,0,0,31.2,1.415l2.329,2.474H26.545a.838.838,0,0,0,0,1.675h7L31.209,8.052a.847.847,0,0,0,.028,1.184A.816.816,0,0,0,32.4,9.207l3.659-3.9a.85.85,0,0,0,0-1.155ZM22.5,10.529a.934.934,0,0,1,.256-.035H24.1a1.722,1.722,0,0,1,.221.022,3.278,3.278,0,0,1,2.913,2.712,1.011,1.011,0,0,1,.408-.1h1.34a1.721,1.721,0,0,1,.221.022,3.348,3.348,0,0,1,2.973,3.02.569.569,0,0,1,.152,0h1.34a1.721,1.721,0,0,1,.221.022c3.684.581,3.637,4.3,3.6,7.291v.78l.082,3.456v.106c-.139,2.949-1.283,4.852-2.6,7.06-.221.366-.442.745-.746,1.284a.044.044,0,0,1-.022.035A8.368,8.368,0,0,1,31.813,39,5.316,5.316,0,0,1,28.748,40h-11.6a3.029,3.029,0,0,1-2.717-1.492,7.907,7.907,0,0,1-1.071-3.363L6.136,24.62,6.1,24.585a13.661,13.661,0,0,1-1.457-2.5,7.487,7.487,0,0,1-.632-2.378,4.934,4.934,0,0,1,.338-2.32,2.744,2.744,0,0,1,1.5-1.492A3.276,3.276,0,0,1,7.8,15.757a5.421,5.421,0,0,1,2.367,1.184c.581.5,1.561,1.3,2.528,2.1l.793.664V6.046c0-2.615,1.144-4.3,2.623-5.054a4.089,4.089,0,0,1,3.776,0,5.322,5.322,0,0,1,2.645,5.019v4.522h-.025Z" transform="translate(0.996 0)" fill="#5c2868"/>
  </g>
</svg>
