<svg xmlns="http://www.w3.org/2000/svg" xmlns:xlink="http://www.w3.org/1999/xlink" width="46" height="46" viewBox="0 0 46 46">
  <defs>
    <clipPath id="clip-users-stats">
      <rect width="46" height="46"/>
    </clipPath>
  </defs>
  <g id="users-stats" clip-path="url(#clip-users-stats)">
    <g id="Group_271" data-name="Group 271">
      <rect id="Rectangle_221" data-name="Rectangle 221" width="46" height="46" rx="10" transform="translate(0 0)" fill="#4791ff" opacity="0.17"/>
      <g id="Group_74" data-name="Group 74" transform="translate(10 13)">
        <path id="Path_384" data-name="Path 384" d="M3.682,10.806A4.614,4.614,0,1,1,8.3,15.412,4.61,4.61,0,0,1,3.682,10.806Z" transform="translate(-0.524 -3.609)" fill="#4791ff"/>
        <path id="Path_385" data-name="Path 385" d="M8.772,15.587A12.637,12.637,0,0,0,1.941,17.4c-2.126,1.4-.33,3.716,2.218,3.716h9.227c2.548,0,4.344-2.314,2.218-3.716A12.637,12.637,0,0,0,8.772,15.587Z" transform="translate(-1 -1.942)" fill="#4791ff"/>
        <path id="Path_386" data-name="Path 386" d="M17.254,18.914q-.017-.14-.048-.283a3.688,3.688,0,0,0-1.67-2.258,13.606,13.606,0,0,0-4.072-1.752,13.455,13.455,0,0,1,5.813-1.235A12.636,12.636,0,0,1,24.108,15.2c2.126,1.4.33,3.716-2.218,3.716Z" transform="translate(0.859 -2.333)" fill="#4791ff"/>
        <path id="Path_387" data-name="Path 387" d="M13.582,8.526a4.534,4.534,0,1,1,4.534,4.526A4.53,4.53,0,0,1,13.582,8.526Z" transform="translate(1.235 -4)" fill="#4791ff"/>
      </g>
    </g>
  </g>
</svg>
